<svg width="51" height="50" viewBox="0 0 51 50" fill="none" xmlns="http://www.w3.org/2000/svg">
<path d="M44.9671 0H5.39606C2.41698 0 0 2.39955 0 5.35714V44.6429C0 47.6004 2.41698 50 5.39606 50H44.9671C47.9462 50 50.3632 47.6004 50.3632 44.6429V5.35714C50.3632 2.39955 47.9462 0 44.9671 0ZM31.1735 42.8237C30.2292 42.9911 29.8807 42.4107 29.8807 41.9308C29.8807 41.3281 29.9031 38.2478 29.9031 35.7589C29.9031 34.0179 29.3186 32.9129 28.6328 32.3326C32.7923 31.875 37.1766 31.3058 37.1766 24.1741C37.1766 22.1429 36.4459 21.1272 35.2542 19.8214C35.4454 19.3415 36.0861 17.3661 35.0631 14.7991C33.5005 14.3192 29.9256 16.7969 29.9256 16.7969C28.4417 16.3839 26.8341 16.1719 25.2491 16.1719C23.664 16.1719 22.0564 16.3839 20.5725 16.7969C20.5725 16.7969 16.9976 14.3192 15.435 14.7991C14.412 17.3549 15.0415 19.3304 15.2439 19.8214C14.0522 21.1272 13.4901 22.1429 13.4901 24.1741C13.4901 31.2723 17.6833 31.875 21.8428 32.3326C21.3032 32.8125 20.8198 33.6384 20.6512 34.8214C19.5832 35.3013 16.8514 36.1272 15.2214 33.2701C14.1984 31.5067 12.3547 31.3616 12.3547 31.3616C10.5336 31.3393 12.2311 32.5 12.2311 32.5C13.4452 33.058 14.2996 35.2009 14.2996 35.2009C15.39 38.5156 20.6062 37.3996 20.6062 37.3996C20.6062 38.9509 20.6287 41.4732 20.6287 41.9308C20.6287 42.4107 20.2914 42.9911 19.3359 42.8237C11.9163 40.3571 6.72259 33.3482 6.72259 25.1562C6.72259 14.9107 14.6143 7.1317 24.9343 7.1317C35.2542 7.1317 43.6181 14.9107 43.6181 25.1562C43.6294 33.3482 38.593 40.3683 31.1735 42.8237ZM20.1453 36.0045C19.9317 36.0491 19.7293 35.9598 19.7069 35.8147C19.6844 35.6473 19.8305 35.5022 20.0441 35.4576C20.2577 35.4353 20.46 35.5246 20.4825 35.6696C20.5163 35.8147 20.3701 35.9598 20.1453 36.0045ZM19.0773 35.904C19.0773 36.0491 18.9087 36.1719 18.6838 36.1719C18.4365 36.1942 18.2679 36.0714 18.2679 35.904C18.2679 35.7589 18.4365 35.6362 18.6614 35.6362C18.875 35.6138 19.0773 35.7366 19.0773 35.904ZM17.5372 35.7812C17.4922 35.9263 17.2674 35.9933 17.0763 35.9263C16.8627 35.8817 16.7165 35.7143 16.7615 35.5692C16.8065 35.4241 17.0313 35.3571 17.2224 35.4018C17.4473 35.4688 17.5934 35.6362 17.5372 35.7812ZM16.1544 35.1786C16.0533 35.3013 15.8397 35.279 15.671 35.1116C15.5024 34.9665 15.4575 34.7545 15.5699 34.654C15.671 34.5312 15.8846 34.5536 16.0533 34.721C16.1994 34.8661 16.2556 35.0893 16.1544 35.1786ZM15.1314 34.1629C15.0303 34.2299 14.8392 34.1629 14.7155 33.9955C14.5918 33.8281 14.5918 33.6384 14.7155 33.5603C14.8392 33.4598 15.0303 33.5379 15.1314 33.7054C15.2551 33.8728 15.2551 34.0737 15.1314 34.1629ZM14.4007 33.0804C14.2996 33.1808 14.1309 33.125 14.0073 33.0134C13.8836 32.8683 13.8611 32.7009 13.9623 32.6228C14.0635 32.5223 14.2321 32.5781 14.3558 32.6897C14.4794 32.8348 14.5019 33.0022 14.4007 33.0804ZM13.6475 32.2545C13.6026 32.3549 13.4564 32.3772 13.3328 32.2991C13.1866 32.2321 13.1192 32.1094 13.1641 32.0089C13.2091 31.942 13.3328 31.9085 13.4789 31.9643C13.625 32.0424 13.6925 32.1652 13.6475 32.2545Z" fill="black"/>
</svg>
