<svg width="50" height="50" viewBox="0 0 50 50" fill="none" xmlns="http://www.w3.org/2000/svg">
<path d="M37.4772 0H12.4867C5.60157 0 0 5.58273 0 12.4447V37.5552C0 44.4167 5.60157 50 12.4867 50H37.4772C44.3623 50 49.9637 44.4166 49.9637 37.5552V12.4446C49.9637 5.58273 44.3623 0 37.4772 0ZM45.3392 37.5551C45.3392 41.8752 41.8125 45.3907 37.4773 45.3907H12.4867C8.15151 45.3907 4.62473 41.8752 4.62473 37.5551V21.3372H14.5037C13.7824 22.8626 13.3768 24.5644 13.3768 26.3591C13.3768 32.8775 18.6975 38.1798 25.2376 38.1798C31.7776 38.1798 37.0983 32.8775 37.0983 26.3591C37.0983 24.5644 36.6927 22.8626 35.9714 21.3372H45.3391V37.5551H45.3392ZM20.3139 26.3592C20.3139 23.6537 22.5226 21.4523 25.2376 21.4523C27.9528 21.4523 30.1613 23.6538 30.1613 26.3592C30.1613 29.0651 27.9528 31.2662 25.2376 31.2662C22.5226 31.2662 20.3139 29.0651 20.3139 26.3592ZM45.3392 16.7281H32.1015C30.1622 15.3517 27.7943 14.5386 25.2376 14.5386C22.6809 14.5386 20.3128 15.3517 18.374 16.7281H4.62473V12.4447C4.62473 8.12405 8.15151 4.60915 12.4867 4.60915H37.4773C41.8125 4.60915 45.3392 8.12405 45.3392 12.4447V16.7281ZM40.3279 7.40452H36.041C35.2777 7.40452 34.6536 8.02679 34.6536 8.78725V13.0599C34.6536 13.8203 35.2777 14.4426 36.041 14.4426H40.3279C41.0911 14.4426 41.7153 13.8203 41.7153 13.0599V8.78725C41.7153 8.02679 41.0912 7.40452 40.3279 7.40452Z" fill="black"/>
</svg>
