<svg width="72" height="32" viewBox="0 0 72 32" fill="none" xmlns="http://www.w3.org/2000/svg">
<path d="M31.0379 23.5593L30.6162 31.134C30.6162 31.6236 30.2507 31.998 29.7727 31.998C29.3229 31.998 28.9293 31.6236 28.9293 31.134L28.5357 23.5593L28.9293 7.80509C28.9293 7.31548 29.2948 6.94106 29.7727 6.94106C30.2226 6.94106 30.6162 7.31548 30.6162 7.80509L31.0379 23.5593ZM28.0016 23.5593L27.5236 31.1628C27.5236 31.6236 27.1581 31.9692 26.7364 31.9692C26.3147 31.9692 25.9492 31.6236 25.9492 31.1628L25.5275 23.5305L25.9492 7.20027C25.9492 6.73945 26.3147 6.39384 26.7364 6.39384C27.1581 6.39384 27.5236 6.73945 27.5236 7.20027L28.0016 23.5593ZM21.451 7.31548L22.0133 23.5017L21.451 31.2492C21.4229 31.6524 21.1417 31.9404 20.7763 31.9404C20.4108 31.9404 20.1015 31.6524 20.1015 31.278L19.6236 23.5305L20.1015 7.31548C20.1296 6.91226 20.4108 6.62425 20.7763 6.62425C21.1417 6.62425 21.4229 6.94106 21.451 7.31548ZM24.4873 6.76826L24.9934 23.5305L24.4873 31.2204C24.4592 31.6524 24.1499 31.9692 23.7563 31.9692C23.3627 31.9692 23.0254 31.6236 23.0254 31.2204L22.5756 23.5305L23.0254 6.76826C23.0254 6.33624 23.3627 6.01943 23.7563 6.01943C24.1499 6.01943 24.4873 6.36504 24.4873 6.76826ZM9.16517 31.7676C8.94026 31.7676 8.74346 31.5948 8.74346 31.3356L8.09684 23.5305L8.74346 15.4662C8.77157 15.207 8.94026 15.0342 9.16517 15.0342C9.39008 15.0342 9.55877 15.2358 9.58688 15.4662L10.3178 23.5305L9.58688 31.3356C9.55877 31.5948 9.39008 31.7676 9.16517 31.7676ZM34.1023 23.5593L33.7368 30.2987L33.7087 31.0476C33.7087 31.3068 33.5963 31.5372 33.4276 31.71C33.2589 31.854 33.034 31.9692 32.7809 31.9692C32.4998 31.9692 32.2468 31.8252 32.0781 31.6236C31.9375 31.4796 31.8532 31.278 31.8532 31.0764V31.0476L31.5158 23.5305L31.8532 4.98259V4.80978C31.8532 4.49297 32.0219 4.20496 32.2749 4.03215C32.4436 3.94575 32.6123 3.88815 32.7809 3.88815C32.9777 3.88815 33.1464 3.97455 33.287 4.06095C33.54 4.23376 33.7087 4.52177 33.7087 4.83858L34.1023 23.5593ZM12.5107 16.0422L13.1855 23.5305L12.5107 31.3932C12.5107 31.6812 12.2858 31.8828 12.0328 31.8828C11.7798 31.8828 11.583 31.6812 11.5549 31.3932L10.9645 23.5305L11.5549 16.0422C11.5549 15.7542 11.7798 15.5526 12.0328 15.5526C12.2858 15.5526 12.4826 15.7542 12.5107 16.0422ZM14.9285 10.8004C15.2097 10.8004 15.4627 11.0596 15.4627 11.3476L16.1093 23.5305L15.4627 31.3932C15.4627 31.71 15.2097 31.9404 14.9285 31.9404C14.6474 31.9404 14.4225 31.71 14.3944 31.3932L13.8321 23.5305L14.3944 11.3476C14.3944 11.0308 14.6474 10.8004 14.9285 10.8004ZM18.4147 31.3932C18.3866 31.7388 18.1335 32.0268 17.7962 31.998C17.4588 31.998 17.1777 31.7388 17.1777 31.3932L16.6435 23.5593L17.1777 8.58272C17.2058 8.23711 17.4588 7.9779 17.7962 7.9779C18.1335 7.9779 18.3866 8.23711 18.4147 8.58272L19.0051 23.5593L18.4147 31.3932ZM36.3233 2.27529C36.6045 2.44809 36.7731 2.7649 36.8013 3.13932L37.223 23.5593L36.8013 30.9612C36.7731 31.5084 36.3514 31.9692 35.8173 31.9692C35.2831 31.9692 34.8333 31.5372 34.8333 30.99L34.6365 27.3322L34.4397 23.5881L34.8333 3.25452V3.13932C34.8333 2.82251 34.9738 2.5345 35.1988 2.36169C35.3674 2.21768 35.5924 2.13128 35.8173 2.13128C36.0141 2.13128 36.1827 2.18888 36.3233 2.27529ZM0.815307 27.8507C0.674736 27.8507 0.534166 27.7354 0.534166 27.5626L0 23.5305L0.534166 19.4407C0.534166 19.2679 0.674736 19.1527 0.815307 19.1527C0.955877 19.1527 1.06833 19.2679 1.09645 19.4407L1.71496 23.5305L1.09645 27.5626C1.06833 27.7354 0.955877 27.8507 0.815307 27.8507ZM3.48614 30.2987C3.31745 30.2987 3.205 30.1835 3.17688 30.0107L2.47403 23.5305L3.17688 16.9062C3.205 16.7334 3.34557 16.6182 3.48614 16.6182C3.65482 16.6182 3.76728 16.7334 3.79539 16.9062L4.6107 23.5305L3.79539 30.0107C3.76728 30.1835 3.62671 30.2987 3.48614 30.2987ZM6.29754 31.4796C6.10074 31.4796 5.96017 31.3068 5.93206 31.1052L5.25732 23.5305L5.93206 15.6678C5.96017 15.4374 6.10074 15.2934 6.29754 15.2934C6.49434 15.2934 6.63491 15.4662 6.66302 15.6678L7.4221 23.5305L6.66302 31.1052C6.63491 31.3356 6.49434 31.4796 6.29754 31.4796ZM63.116 13.8821C68.0078 13.8821 71.9719 17.9431 72 22.9545C72 27.9659 68.0359 31.9692 63.1441 31.9692H38.6006C38.0664 31.9116 37.6447 31.4796 37.6447 30.9324V2.16008C37.6447 1.64166 37.8134 1.35365 38.4881 1.09444C40.203 0.403215 42.1429 0 44.139 0C52.2921 0 58.9832 6.42264 59.6861 14.5734C60.7544 14.1413 61.9071 13.8821 63.116 13.8821Z" fill="black"/>
</svg>
