<svg width="64" height="40" viewBox="0 0 64 40" fill="none" xmlns="http://www.w3.org/2000/svg">
<g clip-path="url(#clip0_5_41)">
<path d="M3.22766 20.3674C3.06559 20.1954 2.86806 20.0588 2.65028 19.9626C2.4325 19.8665 2.19952 19.8209 1.96148 19.8209C1.72343 19.8159 1.49046 19.8665 1.27267 19.9575C1.05489 20.0537 0.857367 20.1903 0.695296 20.3624C0.52816 20.5294 0.396478 20.7267 0.310377 20.9443C0.224277 21.1669 0.178695 21.3997 0.178695 21.6325C0.17363 21.8703 0.219212 22.1031 0.310377 22.3207C0.401542 22.5383 0.533225 22.7356 0.700361 22.9026C0.862479 23.0747 1.05894 23.2109 1.27704 23.3025C1.49514 23.394 1.73003 23.4388 1.96654 23.4339C2.20254 23.4352 2.43637 23.3888 2.65396 23.2975C2.87156 23.2062 3.06842 23.0719 3.23272 22.9026C3.40492 22.7407 3.5366 22.5433 3.62777 22.3257C3.71893 22.1081 3.76452 21.8754 3.76452 21.6375C3.76452 21.3997 3.71893 21.1669 3.62777 20.9494C3.53154 20.7267 3.39986 20.5294 3.22766 20.3674ZM24.4235 16.2585C24.3982 17.392 24.4539 18.5306 24.5856 19.659H24.5248C24.383 19.3807 24.069 18.8645 23.5878 18.1106L12.0403 0H8.53548V23.1202H11.2299V6.40625C11.2603 5.34866 11.2147 4.29107 11.1033 3.23349H11.2046C11.3971 3.73951 11.6452 4.22529 11.939 4.68071L23.8006 23.1202H27.1179V0H24.4235V16.2585ZM45.3864 20.58H35.8647V12.5696H44.1962V10.1306H35.8647V2.44915H44.8039V0H33.1044V23.1202H45.3712L45.3864 20.58ZM47.4477 0V2.44915H54.0825V23.1202H56.7769V2.44915H63.4877V0H47.4477ZM21.0403 28.8686C20.3673 29.1369 19.7594 29.5458 19.2575 30.0679C18.7409 30.6194 18.3357 31.2672 18.0724 31.9807C17.809 32.6941 17.6925 33.4481 17.7229 34.2021C17.6722 35.5987 18.1585 36.965 19.0904 38.0074C19.5563 38.4982 20.1236 38.8777 20.7516 39.1308C21.3796 39.3838 22.0532 39.4951 22.7268 39.4647C23.7398 39.5002 24.7477 39.2876 25.6644 38.8423L25.6745 37.6633C24.8338 38.1541 23.8765 38.397 22.9041 38.3717C22.3824 38.392 21.8608 38.3009 21.3796 38.1035C20.8985 37.9062 20.4629 37.6026 20.1084 37.218C19.367 36.3576 18.986 35.2448 19.0448 34.111C18.984 32.9117 19.3942 31.7378 20.1843 30.837C20.5591 30.4221 21.02 30.0982 21.5316 29.8756C22.045 29.6574 22.5995 29.5521 23.1573 29.5669C24.0437 29.5517 24.9148 29.7693 25.6897 30.1995V28.9293C24.886 28.6056 24.0233 28.4539 23.1573 28.484C22.4331 28.4739 21.7088 28.6004 21.0403 28.8686ZM33.6666 32.4917C33.3281 32.136 32.9165 31.8578 32.4602 31.6761C32.0038 31.4944 31.5134 31.4136 31.0228 31.4392C30.5012 31.4139 29.9846 31.4999 29.4984 31.6872C29.0121 31.8744 28.5715 32.1578 28.1967 32.517C27.8321 32.9219 27.5535 33.3925 27.3712 33.9086C27.1888 34.4247 27.1129 34.9662 27.1483 35.5127C27.0977 36.55 27.4573 37.5671 28.1461 38.3414C28.4905 38.7108 28.9058 39.0043 29.3717 39.2016C29.8377 39.3939 30.3391 39.49 30.8405 39.4698C31.3521 39.485 31.8636 39.3888 32.3397 39.1915C32.8158 38.9941 33.2412 38.6956 33.5907 38.3161C34.3009 37.5161 34.6683 36.4694 34.6137 35.4014C34.6745 34.3387 34.3352 33.3014 33.6666 32.4917ZM32.7398 37.6886C32.5169 37.9456 32.2381 38.1481 31.9246 38.2806C31.6112 38.4131 31.2715 38.4719 30.9317 38.4527C30.5822 38.4679 30.2378 38.4021 29.9187 38.2705C29.5997 38.1339 29.316 37.9315 29.0831 37.6684C28.5977 37.068 28.3539 36.3084 28.3993 35.538C28.3537 34.7435 28.5968 33.9592 29.0831 33.3317C29.311 33.0686 29.5946 32.8611 29.9137 32.7194C30.2327 32.5828 30.5822 32.517 30.9266 32.5322C31.271 32.512 31.6103 32.5778 31.9244 32.7144C32.2384 32.851 32.5169 33.0585 32.7398 33.3216C33.2001 33.9578 33.424 34.7344 33.3729 35.5178C33.4235 36.2869 33.2007 37.0611 32.7398 37.6886ZM38.6098 31.9958C38.2299 32.3349 37.9514 32.7751 37.8146 33.2659V31.677H36.5485V39.2876H37.8146V35.4064C37.7741 34.7031 37.9564 33.9997 38.3312 33.4026C38.468 33.185 38.6503 33.0028 38.8732 32.8763C39.096 32.7498 39.3442 32.6739 39.5974 32.6688C39.9216 32.6435 40.2457 32.7296 40.5192 32.9117V31.6568C40.2862 31.5809 40.0431 31.5455 39.8 31.5556C39.3644 31.5505 38.9441 31.7074 38.6098 31.9958ZM47.9289 35.1382C47.9897 34.1717 47.701 33.2204 47.1185 32.4513C46.8298 32.1274 46.4753 31.8693 46.0752 31.7023C45.6751 31.5354 45.2446 31.4594 44.8141 31.4848C44.338 31.4696 43.8619 31.5657 43.4213 31.758C42.9857 31.9503 42.5957 32.2387 42.2817 32.6031C41.594 33.4047 41.2373 34.4377 41.284 35.4925C41.2181 36.545 41.5473 37.5874 42.2057 38.4071C42.5248 38.7563 42.9199 39.0296 43.3554 39.2117C43.791 39.3939 44.2671 39.4698 44.7381 39.4496C45.6751 39.4951 46.6019 39.2421 47.3819 38.7259V37.5823C46.7155 38.1233 45.8854 38.4229 45.0268 38.4324C44.6976 38.4527 44.3633 38.4021 44.0544 38.2806C43.7454 38.1592 43.4618 37.9821 43.2288 37.7443C42.7763 37.1971 42.5467 36.4997 42.5856 35.791H47.939L47.9289 35.1382ZM42.5755 34.784C42.6413 34.1819 42.9047 33.6151 43.32 33.1749C43.5061 32.9751 43.732 32.8164 43.9833 32.7092C44.2345 32.602 44.5055 32.5486 44.7786 32.5525C45.042 32.5373 45.3003 32.5828 45.5434 32.684C45.7865 32.7852 45.9992 32.937 46.1714 33.1344C46.5259 33.605 46.7032 34.1819 46.6779 34.7688L42.5755 34.784Z" fill="#1E1E1E"/>
</g>
<defs>
<clipPath id="clip0_5_41">
<rect width="63.5484" height="40" fill="white"/>
</clipPath>
</defs>
</svg>
