<svg width="73" height="45" viewBox="0 0 73 45" fill="none" xmlns="http://www.w3.org/2000/svg">
<path d="M35.9655 45C35.7267 45 35.4879 44.9311 35.2719 44.8163L33.0887 43.5076C32.7589 43.3239 32.9181 43.255 33.0318 43.2206C33.4639 43.0714 33.5549 43.0369 34.0211 42.7614C34.0666 42.7384 34.1348 42.7499 34.1803 42.7729L35.8631 43.7831C35.92 43.8176 36.011 43.8176 36.0678 43.7831L42.6401 39.9488C42.6969 39.9144 42.7424 39.8455 42.7424 39.7651V32.1079C42.7424 32.0276 42.7083 31.9587 42.6401 31.9243L36.0678 28.1014C36.011 28.067 35.9314 28.067 35.8631 28.1014L29.2909 31.9243C29.2227 31.9587 29.1885 32.0391 29.1885 32.1079V39.7651C29.1885 39.834 29.234 39.9029 29.2909 39.9373L31.0874 40.982C32.0653 41.4756 32.668 40.8902 32.668 40.3162V32.7508C32.668 32.6475 32.7476 32.5557 32.8613 32.5557H33.6913C33.7937 32.5557 33.8846 32.636 33.8846 32.7508V40.3162C33.8846 41.6364 33.1797 42.3826 31.9403 42.3826C31.565 42.3826 31.258 42.3826 30.428 41.9693L28.6996 40.9705C28.2789 40.718 28.006 40.2588 28.006 39.7651V32.1079C28.006 31.6143 28.2675 31.1436 28.6996 30.9025L35.2719 27.0682C35.6926 26.8271 36.2384 26.8271 36.6477 27.0682L43.22 30.9025C43.6407 31.1551 43.9136 31.6143 43.9136 32.1079V39.7651C43.9136 40.2588 43.6521 40.7294 43.22 40.9705L36.6477 44.8048C36.4544 44.9311 36.2156 45 35.9655 45ZM41.2756 37.4461C41.2756 36.0111 40.3204 35.6323 38.2965 35.3568C36.2497 35.0813 36.0451 34.9435 36.0451 34.4613C36.0451 34.0595 36.2156 33.5315 37.7279 33.5315C39.081 33.5315 39.5814 33.8299 39.786 34.7483C39.8088 34.8402 39.877 34.8976 39.968 34.8976H40.8208C40.8776 34.8976 40.9231 34.8746 40.9572 34.8402C40.9913 34.7943 41.0141 34.7483 41.0027 34.6909C40.8662 33.1067 39.8315 32.372 37.7279 32.372C35.8518 32.372 34.7374 33.1756 34.7374 34.5073C34.7374 35.9652 35.8518 36.3555 37.6483 36.5392C39.7974 36.7573 39.968 37.0673 39.968 37.4921C39.968 38.2383 39.3767 38.5482 37.9895 38.5482C36.2497 38.5482 35.8631 38.112 35.7381 37.2395C35.7267 37.1477 35.6471 37.0788 35.5448 37.0788H34.692C34.5896 37.0788 34.4987 37.1591 34.4987 37.2739C34.4987 38.3875 35.1013 39.7192 37.9781 39.7192C40.0817 39.7192 41.2756 38.8926 41.2756 37.4461ZM47.4726 31.6947C47.4726 32.3949 46.9041 32.9689 46.2105 32.9689C45.5168 32.9689 44.9483 32.3949 44.9483 31.6947C44.9483 30.9714 45.5396 30.4204 46.2105 30.4204C46.8927 30.4089 47.4726 30.9714 47.4726 31.6947ZM47.2679 31.6947C47.2679 31.0977 46.7904 30.627 46.1991 30.627C45.6192 30.627 45.1416 31.0977 45.1416 31.6947C45.1416 32.2916 45.6192 32.7738 46.1991 32.7738C46.7904 32.7623 47.2679 32.2801 47.2679 31.6947ZM46.7563 32.4064H46.4606C46.4492 32.3375 46.4038 31.9702 46.4038 31.9587C46.381 31.8783 46.3583 31.8324 46.2559 31.8324H46.0058V32.4064H45.7329V30.9714H46.2218C46.3924 30.9714 46.7221 30.9714 46.7221 31.3503C46.7221 31.6143 46.5516 31.6717 46.4492 31.7061C46.6425 31.7176 46.6539 31.8439 46.688 32.0276C46.6994 32.1424 46.7221 32.3375 46.7563 32.4064ZM46.4379 31.3962C46.4379 31.201 46.3014 31.201 46.2332 31.201H46.0058V31.6028H46.2218C46.4038 31.6028 46.4379 31.4765 46.4379 31.3962ZM15.6119 15.0372C15.6119 14.7272 15.4528 14.4517 15.1912 14.3024L8.22101 10.25C8.1073 10.1811 7.97085 10.1467 7.8344 10.1352H7.76618C7.62973 10.1352 7.50465 10.1811 7.37957 10.25L0.420715 14.3024C0.15919 14.4517 0 14.7387 0 15.0372L0.0113707 25.9432C0.0113707 26.0924 0.0909655 26.2302 0.216043 26.3105C0.341121 26.3909 0.50031 26.3909 0.636758 26.3105L4.77569 23.9112C5.03721 23.7505 5.1964 23.475 5.1964 23.1765V18.0794C5.1964 17.7809 5.35559 17.4939 5.61712 17.3446L7.37957 16.3229C7.51602 16.2426 7.65247 16.2081 7.80029 16.2081C7.94811 16.2081 8.09593 16.2426 8.22101 16.3229L9.98346 17.3446C10.245 17.4939 10.4042 17.7809 10.4042 18.0794V23.1765C10.4042 23.475 10.5634 23.762 10.8249 23.9112L14.9638 26.3105C15.0889 26.3909 15.2595 26.3909 15.3845 26.3105C15.5096 26.2417 15.5892 26.0924 15.5892 25.9432L15.6119 15.0372ZM53.7265 3.13238V23.3831C53.7265 23.6816 53.5673 23.9686 53.3058 24.1178L46.3355 28.1818C46.074 28.331 45.7556 28.331 45.4941 28.1818L38.5239 24.1178C38.2624 23.9686 38.1032 23.6816 38.1032 23.3831V15.2553C38.1032 14.9568 38.2624 14.6698 38.5239 14.5206L45.4941 10.4566C45.7556 10.3074 46.074 10.3074 46.3355 10.4566L48.0753 11.4669C48.2686 11.5817 48.5187 11.4324 48.5187 11.2143V0.423093C48.5187 0.101653 48.8598 -0.104987 49.1441 0.0557328L53.2944 2.39766C53.5559 2.53542 53.7265 2.82242 53.7265 3.13238ZM48.496 17.9301C48.496 17.8498 48.4505 17.7809 48.3936 17.7464L46.0058 16.3459C45.9376 16.3114 45.858 16.3114 45.7897 16.3459L43.4019 17.7464C43.3337 17.7809 43.2996 17.8498 43.2996 17.9301V20.7198C43.2996 20.8001 43.345 20.869 43.4019 20.9034L45.7897 22.2925C45.858 22.327 45.9376 22.327 45.9944 22.2925L48.3823 20.9034C48.4505 20.869 48.4846 20.8001 48.4846 20.7198V17.9301H48.496ZM72.3517 17.8498C72.6132 17.7005 72.7724 17.4135 72.7724 17.115V15.152C72.7724 14.8535 72.6132 14.5665 72.3517 14.4172L65.4269 10.3533C65.1654 10.2041 64.847 10.2041 64.5855 10.3533L57.6153 14.4172C57.3537 14.5665 57.1945 14.8535 57.1945 15.152V23.2798C57.1945 23.5898 57.3537 23.8653 57.6153 24.0145L64.54 27.9981C64.7902 28.1473 65.1085 28.1473 65.3701 27.9981L69.5545 25.6447C69.8387 25.484 69.8387 25.0707 69.5545 24.91L62.5388 20.846C62.4023 20.7657 62.3227 20.6279 62.3227 20.4787V17.9301C62.3227 17.7809 62.4023 17.6431 62.5388 17.5628L64.7219 16.2885C64.847 16.2081 65.0176 16.2081 65.1427 16.2885L67.3258 17.5628C67.4509 17.6431 67.5419 17.7809 67.5419 17.9301V19.9276C67.5419 20.2491 67.8944 20.4557 68.1786 20.295L72.3517 17.8498ZM63.5621 18.2516C63.5166 18.286 63.4825 18.3319 63.4825 18.3893V19.9506C63.4825 20.008 63.5166 20.0654 63.5621 20.0884L64.9039 20.869C64.9493 20.9034 65.0176 20.9034 65.0631 20.869L66.4048 20.0884C66.4503 20.0539 66.4844 20.008 66.4844 19.9506V18.3893C66.4844 18.3319 66.4503 18.2745 66.4048 18.2516L65.0631 17.4709C65.0176 17.4365 64.9493 17.4365 64.9039 17.4709L63.5621 18.2516ZM34.6578 23.2454V15.1634C34.6578 14.865 34.4759 14.578 34.2144 14.4287L27.2669 10.3877C27.0281 10.25 26.6984 10.227 26.4255 10.3877L19.478 14.4287C19.2165 14.578 19.0345 14.8535 19.0345 15.1634V23.2454C19.0345 23.5668 19.2506 23.8423 19.4894 23.9801L26.4482 28.0211C26.7211 28.1818 27.0395 28.1703 27.2896 28.0211L34.2258 23.9801C34.4304 23.8653 34.5783 23.6701 34.6351 23.4405C34.6465 23.3831 34.6578 23.3142 34.6578 23.2454ZM26.2094 8.90683L26.1185 8.96423H26.2435L26.2094 8.90683ZM34.8739 23.8538L34.8284 23.7734V23.8768L34.8739 23.8538Z" fill="black"/>
</svg>
