<svg width="46" height="24" viewBox="0 0 46 24" fill="none" xmlns="http://www.w3.org/2000/svg">
<path d="M13.708 8.418H11.316L10.35 13.432H12.558C12.558 13.432 15.272 13.524 15.364 10.166C15.502 8.28 13.708 8.418 13.708 8.418ZM33.948 8.418H31.602L30.59 13.432H32.844C32.844 13.432 35.512 13.524 35.65 10.166C35.788 8.28 33.948 8.418 33.948 8.418ZM22.54 0C10.074 0 0 5.29 0 11.868C0 18.446 10.074 23.736 22.54 23.736C35.006 23.736 45.08 18.4 45.08 11.868C45.08 5.29 35.006 0 22.54 0ZM12.466 15.318L10.028 15.272L9.384 18.446H6.808L9.108 6.578C9.108 6.578 12.42 6.624 14.582 6.578C16.744 6.532 18.86 8.05 17.848 11.5C16.652 15.64 12.466 15.318 12.466 15.318ZM24.012 15.318C24.012 15.318 24.61 12.558 24.886 10.626C25.024 9.844 25.484 8.51 24.196 8.51C23.138 8.51 21.528 8.51 21.528 8.51L20.148 15.318H17.618L20.01 3.358H22.586L21.942 6.578H24.61C24.61 6.578 28.198 6.302 27.784 9.2C27.37 12.098 26.542 15.318 26.542 15.318H24.012ZM38.134 11.5C36.938 15.64 32.706 15.318 32.706 15.318L30.314 15.272L29.624 18.446H27.048L29.394 6.578C29.394 6.578 32.66 6.624 34.822 6.578C36.984 6.532 39.1 8.05 38.134 11.5Z" fill="black"/>
</svg>
