<?xml version="1.0" encoding="UTF-8"?>
<svg xmlns="http://www.w3.org/2000/svg" viewBox="0 0 135 46" fill="none">
  <g clip-path="url(#clip0_765_3718)">
    <path d="M23.7882 35.1868C22.7781 35.1868 21.8796 34.9573 21.0991 34.4916C20.3154 34.0292 19.7021 33.393 19.2561 32.5798C18.8102 31.7698 18.5872 30.8352 18.5872 29.7825C18.5872 28.7298 18.8102 27.7952 19.2561 26.9852C19.7021 26.1752 20.3154 25.5391 21.0926 25.0734C21.8698 24.611 22.765 24.3782 23.7751 24.3782C24.4899 24.3782 25.1524 24.5061 25.7656 24.7586C26.3788 25.0111 26.9166 25.3653 27.379 25.8178C27.8414 26.2703 28.1956 26.7918 28.4415 27.3755L26.5526 28.0773C26.3854 27.71 26.1624 27.3886 25.8837 27.1164C25.6049 26.8442 25.2901 26.6278 24.9327 26.4737C24.5752 26.3195 24.1915 26.2441 23.7718 26.2441C23.1684 26.2441 22.6306 26.395 22.1583 26.6999C21.6861 27.0049 21.3221 27.4181 21.0598 27.9461C20.7974 28.4741 20.6663 29.084 20.6663 29.7825C20.6663 30.481 20.8007 31.0942 21.0663 31.6255C21.3352 32.1567 21.7058 32.5765 22.1813 32.8782C22.6568 33.1832 23.2012 33.334 23.8177 33.334C24.244 33.334 24.6342 33.252 24.9851 33.0881C25.336 32.9241 25.6475 32.6978 25.9197 32.4092C26.1919 32.1207 26.4116 31.7895 26.5822 31.409L28.471 32.0944C28.2251 32.7011 27.8709 33.2389 27.4085 33.7046C26.9462 34.1735 26.4116 34.5342 25.7951 34.7933C25.1819 35.0524 24.5129 35.1803 23.7882 35.1803V35.1868Z" fill="#302F36"></path>
    <path d="M38.0075 24.5652V28.7267H33.1934V24.5619L31.157 24.5488V35.0066L33.1934 35.0197V30.6057H38.0075V35.0066H40.044V24.5652H38.0075Z" fill="#302F36"></path>
    <path d="M61.0152 35.0066H63.3205L60.9102 30.9435C60.9562 30.9238 61.0053 30.9074 61.0513 30.8845C61.6251 30.6024 62.0777 30.2024 62.4122 29.6908C62.7434 29.1792 62.9106 28.6053 62.9106 27.9364C62.9106 27.2674 62.7532 26.6837 62.4351 26.1754C62.117 25.6703 61.6776 25.267 61.1136 24.9751C60.5462 24.6833 59.8969 24.539 59.1656 24.5488L57.3292 24.5619H55.2993V35.0033H57.3358V31.3075H58.9L61.0217 35.0033L61.0152 35.0066ZM57.3292 26.4311H59.0705C59.5756 26.4311 59.9887 26.5689 60.3134 26.8476C60.6348 27.1264 60.7955 27.4904 60.7955 27.9364C60.7955 28.2249 60.7233 28.484 60.579 28.7103C60.4347 28.9365 60.2413 29.1169 59.9986 29.2481C59.7559 29.376 59.4805 29.4416 59.1722 29.4416H57.3292V26.4279V26.4311Z" fill="#302F36"></path>
    <path d="M71.2434 29.4119V31.0057H73.6701C73.6438 31.4287 73.5323 31.8091 73.3257 32.1403C73.0863 32.5207 72.7617 32.8126 72.3518 33.0192C71.9386 33.2291 71.4729 33.334 70.9449 33.334C70.2694 33.334 69.6758 33.1832 69.161 32.8782C68.6461 32.5732 68.2461 32.1567 67.964 31.6189C67.682 31.0811 67.541 30.481 67.541 29.7825C67.541 29.084 67.6853 28.4741 67.9739 27.9461C68.2625 27.4181 68.656 27.0049 69.1643 26.6999C69.6693 26.395 70.2497 26.2441 70.9023 26.2441C71.2303 26.2441 71.5549 26.3031 71.8828 26.4212C72.2108 26.5392 72.5092 26.7032 72.7814 26.9131C73.0536 27.123 73.2733 27.3591 73.4438 27.628L75.1097 26.5852C74.8309 26.1556 74.4866 25.7752 74.0767 25.444C73.6668 25.1127 73.1913 24.8504 72.6568 24.6602C72.1222 24.47 71.5385 24.3782 70.9023 24.3782C69.8431 24.3782 68.9019 24.611 68.0854 25.0734C67.2688 25.5358 66.6261 26.172 66.1604 26.9852C65.6947 27.7952 65.4619 28.7298 65.4619 29.7825C65.4619 30.8352 65.6947 31.7698 66.1604 32.5798C66.6261 33.393 67.2688 34.0259 68.0854 34.4916C68.9019 34.954 69.8398 35.1868 70.9023 35.1868C71.8238 35.1868 72.6404 35.0065 73.3487 34.6425C74.057 34.2785 74.6112 33.7505 75.0146 33.0553C75.395 32.3928 75.5918 31.6025 75.6114 30.681H75.6147V29.4119H71.2466H71.2434Z" fill="#302F36"></path>
    <path d="M80.337 33.1406V30.6188H84.2624V28.7988H80.337V26.4278H84.8854V24.5652H80.337H79.8484H78.3005V35.0066H79.8484H80.337H84.9444V33.1406H80.337Z" fill="#302F36"></path>
    <path d="M95.7925 35.0066H96.8025L92.523 24.5652H91.5425L87.2629 35.0066H88.273L89.5913 31.7699H94.4775L95.7957 35.0066H95.7925ZM89.9421 30.9041L92.0311 25.772L94.12 30.9041H89.9421Z" fill="#302F36"></path>
    <path d="M105.617 25.4276V24.5652H100.58H99.626V35.0066H100.58V30.2778H105.112V29.412H100.58V25.4276H105.617Z" fill="#302F36"></path>
    <path d="M107.49 24.5652V25.4276H110.881V35.0066H111.832V25.4276H115.219V24.5652H107.49Z" fill="#302F36"></path>
    <path d="M124.034 25.4276V24.5652H118.993H118.042V35.0066H118.993H124.034V34.1408H118.993V30.0548H123.676V29.1858H118.993V25.4276H124.034Z" fill="#302F36"></path>
    <path d="M135 35.0065L132.403 30.527C132.554 30.4745 132.701 30.4155 132.846 30.3466C133.38 30.081 133.803 29.717 134.115 29.248C134.426 28.7791 134.584 28.2577 134.584 27.651C134.584 27.0443 134.443 26.5065 134.161 26.0409C133.878 25.5752 133.485 25.2079 132.98 24.939C132.475 24.6701 131.894 24.5422 131.242 24.552L128.999 24.5652H128.048V35.0065H128.999V30.7401H131.048C131.189 30.7401 131.324 30.7303 131.462 30.7205L133.964 35.0065H135.003H135ZM128.996 29.858V25.4276H131.239C131.944 25.4276 132.521 25.6342 132.97 26.0474C133.419 26.4606 133.646 26.9951 133.646 27.651C133.646 28.0806 133.547 28.461 133.351 28.7922C133.154 29.1234 132.891 29.3858 132.57 29.576C132.249 29.7662 131.888 29.858 131.494 29.858H128.999H128.996Z" fill="#302F36"></path>
    <path d="M50.7017 35.0066H52.8563L48.7538 24.5652H46.5829L42.4805 35.0066H44.635L45.5106 32.7078H49.8229L50.6985 35.0066H50.7017ZM46.2025 30.9041L47.6684 27.0575L49.1342 30.9041H46.1992H46.2025Z" fill="#302F36"></path>
    <path d="M1.82648 21.6106C2.6627 21.6598 3.29889 22.3779 3.2497 23.2142C3.20051 24.0504 2.48234 24.6866 1.64611 24.6374C0.809885 24.5882 0.173696 23.87 0.222885 23.0338C0.272075 22.1976 0.990248 21.5614 1.82648 21.6106Z" fill="#7C56FE"></path>
    <path d="M4.99778 17.9934C5.19782 17.0981 4.63377 16.2062 3.73852 16.0061C2.84326 15.8061 1.95128 16.3701 1.75124 17.2654C1.55121 18.1606 2.11525 19.0526 3.01051 19.2527C3.90576 19.4527 4.79774 18.8887 4.99778 17.9934Z" fill="#7C56FE"></path>
    <path d="M6.09302 14.4419C7.08993 14.5009 7.94584 13.7401 8.00487 12.7432C8.06389 11.7463 7.30309 10.8904 6.30618 10.8313C5.30926 10.7723 4.45336 11.5331 4.39433 12.53C4.3353 13.5269 5.0961 14.3829 6.09302 14.4419Z" fill="#7C56FE"></path>
    <path d="M10.1857 6.46659C11.2548 6.5289 12.0746 7.45039 12.009 8.51945C11.9467 9.58851 11.0252 10.4083 9.95288 10.3428C8.88054 10.2804 8.06727 9.35896 8.12957 8.28662C8.19188 7.21428 9.11337 6.40101 10.1824 6.46331L10.1857 6.46659Z" fill="#7C56FE"></path>
    <path d="M16.7441 5.72224C17.0688 4.63678 16.4523 3.49557 15.3701 3.16764C14.2846 2.84299 13.1434 3.4595 12.8188 4.54496C12.4941 5.63041 13.1106 6.77162 14.1928 7.09627C15.2783 7.42093 16.4195 6.80441 16.7441 5.72224Z" fill="#7C56FE"></path>
    <path d="M20.2235 0.901722C21.3778 0.970588 22.26 1.96422 22.1911 3.11855C22.1223 4.27287 21.1319 5.15501 19.9743 5.08614C18.82 5.01728 17.9378 4.02364 18.0067 2.86932C18.0756 1.71499 19.0692 0.832856 20.2235 0.901722Z" fill="#7C56FE"></path>
    <path d="M25.8837 0.0194376C27.0282 0.0883035 27.9005 1.06882 27.8316 2.21331C27.7628 3.35779 26.7823 4.23009 25.6378 4.16123C24.4933 4.09236 23.621 3.11184 23.6898 1.96736C23.7587 0.822872 24.7392 -0.0494282 25.8837 0.0194376Z" fill="#7C56FE"></path>
    <path d="M31.5995 0.488459C32.6981 0.554046 33.5376 1.49849 33.472 2.59707C33.4064 3.69564 32.462 4.53515 31.3634 4.46956C30.2648 4.40397 29.4253 3.45953 29.4909 2.36095C29.5565 1.26238 30.5009 0.422873 31.5995 0.488459Z" fill="#7C56FE"></path>
    <path d="M36.8661 5.93894C37.8696 5.99797 38.7321 5.23389 38.7911 4.23041C38.8501 3.22694 38.086 2.36448 37.0793 2.30545C36.0758 2.24642 35.2134 3.0105 35.1543 4.01398C35.0953 5.01745 35.8594 5.87991 36.8661 5.93894Z" fill="#7C56FE"></path>
    <path d="M42.054 5.43968C42.8902 5.48887 43.5264 6.20704 43.4772 7.04327C43.4281 7.8795 42.7099 8.51569 41.8737 8.4665C41.0374 8.41731 40.4012 7.69914 40.4504 6.86291C40.4996 6.02668 41.2178 5.39049 42.054 5.43968Z" fill="#7C56FE"></path>
    <path d="M46.2614 9.71289C46.8779 9.74896 47.3468 10.2769 47.3107 10.8934C47.2747 11.51 46.7467 11.9789 46.1302 11.9428C45.5137 11.9068 45.0447 11.3788 45.0808 10.7623C45.1169 10.1458 45.6449 9.67681 46.2614 9.71289Z" fill="#7C56FE"></path>
    <path d="M49.5048 14.8519C49.8885 14.8748 50.1803 15.2028 50.1574 15.5832C50.1344 15.9636 49.8065 16.2554 49.4228 16.2325C49.0391 16.2095 48.7505 15.8816 48.7735 15.5012C48.7965 15.1175 49.1244 14.8289 49.5081 14.8519H49.5048Z" fill="#7C56FE"></path>
    <path d="M7.69652 43.9525C8.01461 43.9722 8.25729 44.2444 8.23761 44.5625C8.21793 44.8806 7.94575 45.1233 7.62765 45.1036C7.30956 45.0839 7.06689 44.8117 7.08657 44.4936C7.10624 44.1755 7.37843 43.9329 7.69652 43.9525Z" fill="#7C56FE"></path>
    <path d="M4.44359 38.9746C4.90926 39.0008 5.2667 39.4042 5.23719 39.8699C5.21095 40.3355 4.8076 40.693 4.34193 40.6635C3.87627 40.6372 3.51882 40.2371 3.54833 39.7682C3.57457 39.3025 3.97793 38.9451 4.44359 38.9746Z" fill="#7C56FE"></path>
    <path d="M3.32194 34.8197C3.49902 34.2262 3.16453 33.6031 2.57097 33.426C1.97741 33.249 1.35434 33.5834 1.17726 34.177C1.00017 34.7706 1.33467 35.3936 1.92822 35.5707C2.52178 35.7478 3.14485 35.4133 3.32194 34.8197Z" fill="#7C56FE"></path>
    <path d="M1.42984 27.4904C2.17425 27.533 2.74157 28.1725 2.69566 28.9169C2.65303 29.6613 2.01356 30.2286 1.26915 30.1827C0.524746 30.1401 -0.0425769 29.5006 0.00333363 28.7562C0.0459649 28.0118 0.685433 27.4445 1.42984 27.4904Z" fill="#7C56FE"></path>
    <path d="M10.7102 26.2212C11.4809 26.2671 12.1433 25.6801 12.1892 24.9095C12.2351 24.1388 11.6481 23.4764 10.8775 23.4305C10.1068 23.3846 9.44443 23.9716 9.39852 24.7422C9.35261 25.5129 9.9396 26.1753 10.7102 26.2212Z" fill="#7C56FE"></path>
    <path d="M13.0354 17.5574C13.9307 17.6099 14.6128 18.3805 14.557 19.2725C14.5046 20.1677 13.7339 20.8498 12.8419 20.7941C11.9467 20.7416 11.2646 19.9743 11.3203 19.079C11.3728 18.1837 12.1402 17.5016 13.0354 17.5574Z" fill="#7C56FE"></path>
    <path d="M17.092 12.8647C18.102 12.9238 18.8693 13.7895 18.8103 14.7996C18.7513 15.8096 17.8855 16.5737 16.8755 16.5146C15.8655 16.4556 15.1014 15.5899 15.1604 14.5831C15.2195 13.5764 16.0852 12.8057 17.092 12.8647Z" fill="#7C56FE"></path>
    <path d="M22.4895 10.0312C23.5553 10.0935 24.3653 11.0084 24.303 12.0742C24.2407 13.14 23.3257 13.95 22.2599 13.8877C21.1942 13.8254 20.3842 12.9104 20.4465 11.8447C20.5088 10.7789 21.4237 9.96889 22.4895 10.0312Z" fill="#7C56FE"></path>
    <path d="M28.494 9.49971C29.527 9.56202 30.3107 10.4474 30.2517 11.4771C30.1894 12.5101 29.304 13.2939 28.2743 13.2349C27.2413 13.1726 26.4575 12.2871 26.5166 11.2574C26.5789 10.2244 27.4643 9.44068 28.494 9.49971Z" fill="#7C56FE"></path>
    <path d="M34.1116 14.6057C35.0069 14.6582 35.7742 13.9761 35.8267 13.0841C35.8792 12.1889 35.1971 11.4215 34.3051 11.369C33.4098 11.3166 32.6425 11.9987 32.59 12.8907C32.5375 13.7859 33.2196 14.5533 34.1116 14.6057Z" fill="#7C56FE"></path>
    <path d="M38.9847 17.682C39.5783 17.718 40.0866 17.2655 40.1226 16.6719C40.1587 16.0784 39.7062 15.5701 39.1126 15.534C38.519 15.4979 38.0107 15.9505 37.9747 16.544C37.9386 17.1376 38.3911 17.6459 38.9847 17.682Z" fill="#7C56FE"></path>
    <path d="M41.5426 20.7119C41.9525 20.7348 42.3034 20.4233 42.3264 20.0166C42.3493 19.6067 42.0378 19.2558 41.6311 19.2329C41.2245 19.2099 40.8736 19.5215 40.8474 19.9281C40.8244 20.338 41.136 20.6889 41.5426 20.7119Z" fill="#7C56FE"></path>
    <path d="M13.091 35.7771C13.4812 35.8001 13.7764 36.1346 13.7534 36.5248C13.7304 36.9151 13.396 37.2102 13.0057 37.1872C12.6155 37.1643 12.3203 36.8298 12.3433 36.4396C12.3662 36.0493 12.7007 35.7542 13.091 35.7771Z" fill="#7C56FE"></path>
    <path d="M10.7628 31.9766C11.376 32.0127 11.9007 31.547 11.9368 30.9338C11.9729 30.3205 11.5072 29.7958 10.894 29.7598C10.2807 29.7237 9.75605 30.1894 9.71998 30.8026C9.68391 31.4158 10.1496 31.9405 10.7628 31.9766Z" fill="#7C56FE"></path>
  </g>
  <defs>
    <clipPath id="clip0_765_3718">
      <rect width="135" height="45.0907" fill="white" transform="translate(0 0.0161133)"></rect>
    </clipPath>
  </defs>
</svg>
