<svg xmlns="http://www.w3.org/2000/svg" viewBox="0 0 215.7 40.2"><path d="m122.3.5c3.6.2 6.7 1.3 9.2 3.1s4.5 4.3 6 7.4 2.2 6.2 2.2 9.4-.7 6.3-2.2 9.4-3.5 5.6-6 7.4-5.6 2.9-9.2 3.1v-3c2.7-.3 5.1-1.2 7.1-2.8s3.5-3.6 4.7-6.1c1.1-2.5 1.7-5.1 1.7-8 0-2.8-.6-5.5-1.7-8s-2.7-4.5-4.7-6.1-4.3-2.5-7.1-2.8z"></path><path d="m114 40.3c-3.6-.2-6.7-1.2-9.2-3.1-2.5-1.8-4.5-4.3-6-7.4s-2.2-6.2-2.2-9.4.7-6.3 2.2-9.4 3.5-5.6 6-7.4 5.6-2.9 9.2-3.1v3.1c-2.7.3-5.1 1.2-7.1 2.8s-3.5 3.6-4.7 6.1c-1.1 2.5-1.7 5.1-1.7 8 0 2.8.6 5.5 1.7 8s2.7 4.5 4.7 6.1 4.3 2.5 7.1 2.8z"></path><path d="m158.7 25.2c.8-.4 1.4-.8 1.8-1.2s.7-1 .9-1.7.3-1.3.3-2-.1-1.1-.3-1.4-.5-.4-.9-.4h-5.5c-.5 0-.9-.1-1.2-.2-.3-.2-.4-.5-.5-.9s-.2-1.1-.2-2c0-.3 0-.7-.1-1.1s-.2-.8-.3-1.2-.2-.6-.2-.8c0-.1 0-.2.1-.4s.3-.5.7-.9c.4-.5.7-.8.9-1.1.2-.2.4-.3.5-.3s.2 0 .3.1.2.2.2.4c.1.3.2.7.3 1.1.1.5.1.9.1 1.4 0 .8 0 1.4.1 1.7 0 .3.1.5.3.6s.5.2.9.2h5.8c.7 0 1.2.2 1.5.7s.4 1.1.4 1.9c0 .7-.1 1.4-.3 2.3s-.4 1.6-.6 2.3c-.5 1.5-1.3 2.8-2.2 4-.9 1.1-2 2-3.2 2.5-.5.2-1.2.5-2 .7-.8.3-1.4.4-1.7.4-.2 0-.3-.1-.3-.3s.2-.6.5-1.3.6-1.3.8-1.6c.1-.1.2-.2.3-.3s.3-.1.6-.2c.7-.3 1.4-.6 2.2-1z"></path><path d="m166.6 18.5c-.3 0-.5-.1-.6-.1s-.2-.1-.2-.3c0-.1 0-.2.1-.3 0-.1.1-.2.2-.3s.1-.2.1-.2c.6-.9 1.3-1.9 2.1-3.1.1-.2.3-.3.4-.4s.2-.1.3-.1.2.1.3.2.1.2.2.4c.1.5.3.7.7.7h9c.8 0 1.4.3 1.7.9.4.6.5 1.3.5 2.1 0 1.1-.3 2.4-.8 3.8-.5 1.2-1 2.2-1.5 3.2-.3.6-.7 1.1-1.1 1.5-.4.5-.8.9-1.2 1.2-.3.2-.9.6-1.7 1s-1.6.8-2.1.9c-.3.1-.5.2-.6.2-.2 0-.3-.1-.3-.3 0-.1.1-.6.4-1.3.2-.7.4-1.2.6-1.5.1-.2.2-.3.2-.4.1-.1.2-.1.4-.2 1.3-.5 2.3-.9 2.9-1.3.4-.2.7-.5.9-.7.2-.3.4-.7.6-1.2.3-.9.4-1.8.4-2.8 0-.5-.1-1-.3-1.3s-.5-.4-1-.4h-6.1c-.2 0-.3.1-.4.2s-.1.3-.1.5v3.9 7.6 1.2c0 .4-.1.7-.2.9-.1.3-.3.6-.4.9-.2.3-.3.5-.5.8-.2.2-.3.4-.3.5-.2.3-.4.4-.5.4s-.2 0-.2-.1-.1-.2-.1-.4c-.1-1.4-.2-3.7-.2-6.9-.1-3.6-.2-6.3-.3-8.1 0-.4-.1-.6-.2-.8s-.2-.3-.5-.3c-.3-.2-.5-.2-.6-.2z"></path><path d="m186.2 19.7c-.3-.3-.6-.6-1.1-.9-.4-.3-1-.7-1.6-1-.2-.1-.3-.2-.5-.3s-.3-.2-.5-.3c-.1-.1-.2-.2-.2-.3s0-.2.1-.3c.2-.3.5-.7.9-1.3s.7-1 .9-1.2.3-.2.4-.2.1 0 .2.1c.7.4 1.5 1 2.4 1.6.9.7 1.5 1.2 2 1.7.5.6.8 1.3.8 2.1 0 .9-.5 2.2-1.6 3.9-.2.3-.4.5-.5.6s-.4.3-.6.6c-.7.5-1.2.8-1.7 1.1-.2.1-.4.2-.5.2s-.2-.1-.2-.2c0 0 0-.1.1-.3.1-.1.1-.2.1-.2l.4-.7c.4-.7.7-1.3.9-1.8s.3-.9.3-1.2c0-.8-.1-1.3-.5-1.7z"></path><path d="m191.4 18.4c-.2 0-.3 0-.4-.1s-.2-.2-.2-.4c0-.1.1-.3.2-.6.3-.5.6-1.1.9-1.7s.7-1.1 1-1.6c.1-.2.3-.3.5-.3 0 0 .1 0 .2.1s.1.2.1.3.1.2.1.4c.1.2.1.3.3.4.1.1.3.1.5.1h3.5c.1 0 .2-.1.5-.4s.6-.5.8-.7c.3-.2.5-.3.7-.3.1 0 .2 0 .2.1.1.1.1.2.1.3 0 0 0 .2.1.3 0 .2.1.3.2.4s.2.2.3.2h1.4c.1 0 .2 0 .4.1.1.1.2.1.2.2s0 .3-.1.5c-.1.3-.2.6-.4 1.1-.2.4-.3.8-.5 1.1-.1.2-.1.3-.2.3-.1.1-.2.1-.3.1h-.4c-.2 0-.3.1-.3.2-.1.1-.1.3-.1.4 0 1.1 0 2 .1 3 0 .9.1 1.5.1 1.8 0 .8.1 1.6.1 2.3v.7c0 .2-.1.4-.2.6-.3.6-.7 1.3-1.1 1.9-.2.4-.4.6-.6.6s-.3-.2-.3-.5c-.1-1.1-.2-2.3-.2-3.8-.1-1.4-.1-2.4-.2-3-.1-1.7-.1-3-.2-3.8 0-.2-.1-.3-.2-.4s-.2-.1-.3-.1h-6.3z"></path><path d="m204.8 18.4c-.4 0-.6-.1-.6-.3 0-.1.1-.4.2-.7.2-.4.4-.8.8-1.5.4-.6.7-1.2 1-1.6.1-.2.3-.3.4-.4s.2-.2.3-.2.2 0 .3.1.1.2.1.3c.1.6.4.9.8.9h3.2c.7 0 1.4.2 2 .6s1.1.9 1.5 1.6.6 1.4.7 2.2c.1 1.3.2 2.4.3 3.4s.1 2 .1 3.1c0 .6-.1 1.2-.3 1.7-.1.2-.3.5-.5.9s-.4.7-.6 1c-.1.1-.2.2-.3.3s-.1.1-.2.1-.2 0-.2-.1c-.1-.1-.1-.2-.1-.4-.1-3.2-.3-5.7-.5-7.5-.2-2.3-1.4-3.4-3.5-3.4h-4.9z"></path><path d="m9.6 19.5c-.1-.8-.3-1.4-.5-1.9-.3-.5-.6-.7-1.1-.7s-1 .3-1.5.8-1.1 1.4-1.5 2.7v6.1c0 .2.2.3.6.5s1 .3 1.9.4v.9h-7.5v-.9c.7-.1 1.1-.3 1.5-.4.3-.1.5-.3.5-.4v-7.9c0-.6 0-1-.1-1.3s-.1-.5-.2-.6-.3-.2-.5-.3c-.2 0-.6-.1-1.1-.1v-.9c1-.2 1.7-.3 2.3-.5.6-.1 1.2-.4 1.9-.6l.5.6.2 2.5c.6-.9 1.2-1.6 1.9-2.2s1.5-.8 2.3-.8c.4 0 .7.1 1.1.2s.7.3 1.1.5c.1 0 .1.2.1.4 0 .5-.1 1.1-.3 2s-.4 1.6-.6 2h-1z"></path><path d="m20.9 28.1c-.2-.4-.4-1-.4-1.7-.8.8-1.6 1.4-2.5 1.8-.8.4-1.6.6-2.3.6-.5 0-1.1-.1-1.5-.4-.5-.2-.9-.6-1.2-1.1s-.5-1.1-.5-1.8c0-.6.1-1.2.3-1.7s.5-.9.9-1.3.8-.7 1.2-.9c.5-.3 1.1-.5 2-.8.9-.2 2-.5 3.5-.7v-1.8c0-.7-.2-1.2-.5-1.6s-.8-.6-1.5-.6c-.4 0-.7.1-1 .2-.3.2-.6.4-.8.7s-.3.6-.2 1c0 .1-.2.2-.6.4s-.9.3-1.4.4-.9.2-1.2.2c-.1 0-.1 0-.1 0l-.3-.7c.3-.7.8-1.4 1.5-2s1.6-1.1 2.6-1.4c1-.4 1.9-.5 2.9-.5 1.2 0 2.1.3 2.7.9s.9 1.4.9 2.4v7.3c0 .7.2 1.1.6 1.1.1 0 .3 0 .5-.1s.5-.2.8-.3l.3.9c-.8.5-1.6 1-2.3 1.4-.8.4-1.3.5-1.6.5-.3.2-.6 0-.8-.4zm-.4-6.7c-1.2.2-2.1.4-2.6.6s-1 .5-1.3.8-.5.6-.6.9-.2.7-.2 1.1c0 .6.2 1.1.5 1.3.3.3.6.4 1 .4.5 0 1-.1 1.5-.4.5-.2 1.1-.7 1.8-1.2v-3.5z"></path><path d="m36.3 26.1c-.6.6-1.1 1.1-1.6 1.5s-.9.7-1.4.8c-.5.2-1 .3-1.6.3-.8 0-1.6-.3-2.4-.8-.8-.6-1.4-1.4-1.9-2.4s-.8-2.2-.8-3.6c0-1.2.3-2.4.9-3.6.6-1.1 1.4-2.1 2.5-2.8s2.2-1.1 3.6-1.1c.5 0 1 .1 1.4.2s.9.3 1.4.7v-5.1c0-.8 0-1.4-.1-1.6-.1-.3-.2-.5-.5-.6s-.7-.2-1.5-.2v-.9c1.6-.2 3.1-.5 4.5-.9l.5.5v17.7c0 .7 0 1.1.1 1.4s.1.5.3.6c.1.1.2.1.3.1.2 0 .7-.1 1.3-.4l.3.9c-.9.6-1.7 1-2.4 1.4s-1.2.5-1.5.5c-.8 0-1.2-.9-1.4-2.6zm-1.4-9.4c-.5-.3-1.1-.5-1.8-.5-1.1 0-2 .4-2.6 1.2-.7.8-1 2.1-1 3.7 0 1 .2 1.9.5 2.6.3.8.8 1.4 1.3 1.8s1.1.6 1.6.6 1.1-.2 1.6-.5 1.1-.8 1.7-1.4v-6.2c-.3-.6-.8-1-1.3-1.3z"></path><path d="m42.9 27.3c.6-.1 1.1-.3 1.4-.4.3-.2.5-.3.5-.4v-7.6-.4c0-.6 0-1-.1-1.2s-.2-.4-.5-.5-.7-.2-1.4-.3v-.9c1.6-.2 3-.6 4.2-1.1h.8v12c0 .1.2.3.5.5s.8.3 1.5.4v.9h-6.9z"></path><path d="m53.1 27.9c-.9-.6-1.6-1.3-2.1-2.4-.5-1-.8-2.2-.8-3.6s.3-2.6 1-3.8c.7-1.1 1.6-2 2.7-2.7 1.2-.7 2.5-1 3.9-1 .7 0 1.4.1 2.2.3s1.3.5 1.6.8c0 .2 0 .5-.1.9-.1.5-.3.9-.5 1.4s-.3.8-.4 1l-.8-.1c-.3-.8-.7-1.4-1.2-1.9s-1.1-.7-1.9-.7c-.6 0-1.2.2-1.7.6s-.9 1-1.3 1.8c-.3.8-.5 1.8-.5 3 0 1 .2 1.9.5 2.6.4.8.8 1.3 1.5 1.7.6.4 1.3.6 2 .6.4 0 .8 0 1.1-.1s.7-.2 1.1-.5c.4-.2 1-.6 1.6-1.2l.7.8c-.8.9-1.5 1.6-2.2 2.1-.6.5-1.2.8-1.8.9-.5.1-1.2.2-1.8.2-.9.1-1.9-.2-2.8-.7z"></path><path d="m71.4 28.1c-.2-.4-.4-1-.4-1.7-.8.8-1.6 1.4-2.5 1.8-.8.4-1.6.6-2.3.6-.5 0-1.1-.1-1.5-.4-.5-.2-.9-.6-1.2-1.1s-.5-1.1-.5-1.8c0-.6.1-1.2.3-1.7s.5-.9.9-1.3.8-.7 1.2-.9c.5-.3 1.1-.5 2-.8.9-.2 2-.5 3.5-.7v-1.8c0-.7-.2-1.2-.5-1.6s-.8-.6-1.5-.6c-.4 0-.7.1-1 .2-.3.2-.6.4-.8.7s-.3.6-.2 1c0 .1-.2.2-.6.4s-.9.3-1.4.4-.9.2-1.2.2c-.1 0-.1 0-.1 0l-.3-.7c.3-.7.8-1.4 1.5-2s1.6-1.1 2.6-1.4c1-.4 1.9-.5 2.9-.5 1.2 0 2.1.3 2.7.9s.9 1.4.9 2.4v7.3c0 .7.2 1.1.6 1.1.1 0 .3 0 .5-.1s.5-.2.8-.3l.3.9c-.8.5-1.6 1-2.3 1.4-.8.4-1.3.5-1.6.5-.3.2-.6 0-.8-.4zm-.4-6.7c-1.2.2-2.1.4-2.6.6s-1 .5-1.3.8-.5.6-.6.9-.2.7-.2 1.1c0 .6.2 1.1.5 1.3.3.3.6.4 1 .4.5 0 1-.1 1.5-.4.5-.2 1.1-.7 1.8-1.2v-3.5z"></path><path d="m76.9 27.3c.8-.1 1.3-.3 1.6-.4s.5-.3.5-.5v-16.5c0-.6 0-1-.1-1.2s-.3-.4-.5-.5c-.3-.1-.7-.2-1.3-.2v-.9c1-.2 1.8-.3 2.4-.5.7-.2 1.3-.4 2-.7l.5.6v20c0 .2.2.3.5.5.3.1.9.3 1.6.4v.9h-7.2z"></path><path d="m46.1 11.8c-.2-.2-.3-.5-.3-.8s.1-.5.2-.8c.1-.2.3-.4.6-.5.2-.1.5-.2.8-.2.4 0 .7.1.9.3s.3.5.3.8c0 .4-.1.8-.4 1.1s-.7.4-1.1.4c-.5 0-.8-.1-1-.3z"></path></svg>