<?xml version="1.0" encoding="utf-8"?>
<!-- Generator: Adobe Illustrator 26.1.0, SVG Export Plug-In . SVG Version: 6.00 Build 0)  -->
<svg version="1.1" id="Layer_1" xmlns="http://www.w3.org/2000/svg" xmlns:xlink="http://www.w3.org/1999/xlink" x="0px" y="0px"
	 viewBox="0 0 1080 442" style="enable-background:new 0 0 1080 442;" xml:space="preserve">
<style type="text/css">
	.st0{fill:none;}
</style>
<g>
	<path d="M542.2,314c0,6-4.9,10.7-10.7,10.7h-6c-3.4,0-7.2-2.2-8.8-5.4c-1.5-3-1.8-4.5-2.8-4.5c-0.3,0-0.4,0-0.7,0.2l-13,6.4
		c-0.6,0.3-0.9,0.7-0.9,1c0,1.5,1.9,5.8,6.9,10.9c4.5,4.6,10.9,7,19.4,7h6c16.8,0,27.7-10.6,27.7-26.4c0-14.7-7.5-22.9-23.4-30.2
		c-10.4-4.8-17.3-6.9-17.3-13.9c0-6.1,4.9-10.7,10.7-10.7h2.2c4.6,0,7.1,2.7,10,7.4c0.9,1.3,1.2,2.2,1.9,2.2c0.2,0,0.4,0,0.7-0.2
		l13-6.4c0.6-0.3,0.9-0.6,0.9-1.2c0-1.8-3.7-8.5-9.5-12.7c-4.8-3.4-10.1-4.9-17-4.9h-2.2c-16.7,0-27.7,10.6-27.7,26.4
		c0,14.7,8.3,21.5,24.7,29.3C535.9,303.9,542.2,306.6,542.2,314 M567.1,170.6v-67.5c0-1-0.4-1.5-1.5-1.5h-14.2c-1,0-1.5,0.4-1.5,1.5
		v67.5c0,6.1-4.6,10.7-10.6,10.7h-7.3c-6,0-10.7-4.8-10.7-10.7v-67.5c0-1-0.6-1.5-1.5-1.5h-14c-1,0-1.5,0.4-1.5,1.5v67.5
		c0,15.8,10.9,26.4,27.7,26.4h7.3C556,197,567.1,186.4,567.1,170.6 M644.7,245h-52.6c-1,0-1.5,0.4-1.5,1.5v90.9c0,1,0.4,1.5,1.5,1.5
		h52.6c1,0,1.5-0.4,1.5-1.5v-12.7c0-1-0.6-1.5-1.5-1.5h-35.5c-1,0-1.5-0.4-1.5-1.5v-21.2c0-1,0.4-1.5,1.5-1.5h29
		c1,0,1.5-0.4,1.5-1.5V285c0-1-0.4-1.5-1.5-1.5h-29c-1,0-1.5-0.4-1.5-1.5v-19.8c0-1,0.4-1.5,1.5-1.5h35.5c1,0,1.5-0.4,1.5-1.5v-12.7
		C646.2,245.5,645.6,245,644.7,245 M665.4,194v-90.9c0-1-0.6-1.5-1.5-1.5h-13.7c-1,0-1.5,0.4-1.5,1.5l0.6,59.7l-30.4-60.5l-1.3-0.7
		h-12.5c-1,0-1.5,0.4-1.5,1.5V194c0,1,0.4,1.5,1.5,1.5h13.9c1,0,1.5-0.4,1.5-1.5l-0.7-59.1l30.5,59.9l1.3,0.7h12.4
		C664.9,195.5,665.4,195,665.4,194 M719.5,194v-90.9c0-1-0.6-1.5-1.5-1.5h-14.1c-1,0-1.5,0.4-1.5,1.5V194c0,1,0.4,1.5,1.5,1.5H718
		C719,195.5,719.5,195,719.5,194 M708,304.3c0,0.9-0.6,1.3-1.6,1.3h-10.9c-1,0-1.6-0.4-1.6-1.3c0-0.1,0.2-0.4,0.2-0.6l5.1-19.7
		c0.2-0.9,0.7-3.6,1.8-8.2h0.4c0.9,4.6,1.5,7.3,1.6,8.2l4.9,19.7C707.8,303.9,708,304.2,708,304.3 M735.7,337.5
		c0-0.2-0.2-0.3-0.2-0.6l-27.7-90.9c-0.3-0.7-0.7-1-1.5-1h-10.7c-0.9,0-1.2,0.3-1.5,1l-27.7,90.9c0,0.3-0.2,0.4-0.2,0.6
		c0,0.9,0.6,1.3,1.6,1.3h14.9c0.7,0,1.3-0.3,1.5-1l4.5-15.6c0.1-0.7,0.6-0.9,1.5-0.9h21.3c0.9,0,1.3,0.2,1.5,0.9l4.5,15.6
		c0.2,0.7,0.6,1,1.5,1h15C735.1,338.9,735.7,338.4,735.7,337.5 M805.7,115.8v-12.7c0-1-0.6-1.5-1.5-1.5h-52.4c-1,0-1.5,0.4-1.5,1.5
		v12.7c0,1,0.4,1.5,1.5,1.5H768c1,0,1.5,0.4,1.5,1.5V194c0,1,0.4,1.5,1.5,1.5h14c1,0,1.5-0.4,1.5-1.5v-75.2c0-1,0.4-1.5,1.5-1.5
		h16.2C805.3,117.3,805.7,116.8,805.7,115.8 M806.9,259.2v-12.7c0-1-0.6-1.5-1.5-1.5H753c-1,0-1.5,0.4-1.5,1.5v12.7
		c0,1,0.4,1.5,1.5,1.5h16.2c1,0,1.5,0.4,1.5,1.5v75.2c0,1,0.4,1.5,1.5,1.5h14c1,0,1.5-0.4,1.5-1.5v-75.2c0-1,0.4-1.5,1.5-1.5h16.2
		C806.4,260.7,806.9,260.2,806.9,259.2 M870.5,314c0,6-4.9,10.7-10.7,10.7h-6c-3.4,0-7.2-2.2-8.8-5.4c-1.5-3-1.8-4.5-2.8-4.5
		c-0.3,0-0.4,0-0.7,0.2l-13,6.4c-0.6,0.3-0.9,0.7-0.9,1c0,1.5,1.9,5.8,6.9,10.9c4.5,4.6,10.9,7,19.4,7h6c16.8,0,27.7-10.6,27.7-26.4
		c0-14.7-7.5-22.9-23.4-30.2c-10.4-4.8-17.3-6.9-17.3-13.9c0-6.1,4.9-10.7,10.7-10.7h2.2c4.6,0,7.1,2.7,10,7.4
		c0.9,1.3,1.2,2.2,1.9,2.2c0.2,0,0.4,0,0.7-0.2l13-6.4c0.6-0.3,0.9-0.6,0.9-1.2c0-1.8-3.7-8.5-9.5-12.7c-4.8-3.4-10.1-4.9-17-4.9
		h-2.2c-16.7,0-27.7,10.6-27.7,26.4c0,14.7,8.3,21.5,24.7,29.3C864.2,303.9,870.5,306.6,870.5,314 M892.1,194v-12.7
		c0-1-0.6-1.5-1.5-1.5h-35.5c-1,0-1.5-0.4-1.5-1.5v-21.2c0-1,0.4-1.5,1.5-1.5h29c1,0,1.5-0.4,1.5-1.5v-12.7c0-1-0.4-1.5-1.5-1.5h-29
		c-1,0-1.5-0.4-1.5-1.5v-19.8c0-1,0.4-1.5,1.5-1.5h35.5c1,0,1.5-0.4,1.5-1.5v-12.7c0-1-0.6-1.5-1.5-1.5h-52.6c-1,0-1.5,0.4-1.5,1.5
		V194c0,1,0.4,1.5,1.5,1.5h52.6C891.7,195.5,892.1,195,892.1,194 M972.1,169.1c0,6-4.8,10.7-10.7,10.7H945c-1,0-1.5-0.4-1.5-1.5
		v-59.6c0-1,0.4-1.5,1.5-1.5h16.4c5.8,0,10.7,4.9,10.7,10.7V169.1z M989.1,167.8v-38.4c0-17-10.7-27.7-27.7-27.7h-33.5
		c-1,0-1.5,0.4-1.5,1.5V194c0,1,0.4,1.5,1.5,1.5h33.5C978.4,195.5,989.1,184.7,989.1,167.8"/>
	<rect x="429.1" y="41.4" width="3.6" height="359.3"/>
	<path class="st0" d="M151.2,128.8c-17,4.4-31.9,10.6-43,18.9v26.2c4-1.4,8.3-2.3,12.8-2.3c20.6,0,37.4,16.5,37.8,37l0,0l0,3.1
		l-0.3,47.9c0,14,4.9,24.8,15,33.2c10.4,8.6,26.9,12.9,49.2,12.9c22.3,0,38.9-4.3,49.2-12.9c10.1-8.4,15-19.2,15-33.1l-1.1-49.6
		l-0.1-3.8l0.2-0.1c1.6-19.4,17.9-34.7,37.7-34.7c5,0,9.8,1,14.1,2.8v-26.7c-9.7-7.7-24.8-13.9-42.8-18.4
		c-11.5-22.5-39.5-38.4-72.1-38.4C190.6,90.9,162.9,106.5,151.2,128.8"/>
	<path d="M354.5,203.3c-0.2-1-0.5-2-0.8-2.9c-1-3.1-2.5-6-4.3-8.6c-0.9-1.3-2-2.6-3.1-3.8c-0.1-0.1-0.1-0.1-0.2-0.2
		c-0.1-0.1-0.1-0.1-0.2-0.2c-1.2-1.1-2.4-2.2-3.8-3.1c-2.6-1.9-5.5-3.3-8.6-4.3c-1-0.3-1.9-0.6-2.9-0.8c-2-0.4-4.1-0.6-6.2-0.6
		c-2.1,0-4.2,0.2-6.2,0.6c-1,0.2-2,0.5-2.9,0.8c-9.6,3-17.2,10.6-20.2,20.2c-0.9,2.9-1.4,6-1.4,9.1c0,0.2,0,0.4,0,0.6l0,0l1.1,49.6
		c0,14.1-4.5,25.7-13.5,34.9c-1.3,1.3-2.7,2.6-4.1,3.8c-7.3,6.1-17.1,10.2-29.3,12.5c-7.3,1.4-15.5,2-24.5,2
		c-8.7,0-16.5-0.7-23.5-1.9c-2.8-0.5-5.5-1.1-8-1.7c-2.2-0.6-4.4-1.3-6.4-2c-6.1-2.3-11.4-5.2-15.8-8.9c-2.9-2.4-5.5-5.1-7.7-7.9
		c-6.6-8.5-9.9-18.8-9.9-30.8l0.3-48l-0.1-0.1c0.1-0.7,0.1-1.4,0.1-2.1c0-3.2-0.5-6.2-1.4-9.1c-3-9.6-10.6-17.2-20.2-20.2
		c-1-0.3-1.9-0.6-2.9-0.8c-2-0.4-4.1-0.6-6.2-0.6c-2.1,0-4.2,0.2-6.2,0.6c-1,0.2-2,0.5-2.9,0.8c-9.6,3-17.2,10.6-20.2,20.2
		c-0.3,1-0.6,1.9-0.8,2.9c-0.4,2-0.6,4.1-0.6,6.2c0,3.8,0.7,7.5,2,10.9c0.3,0.7,0.6,1.4,0.9,2.1c1.5,3.2,3.4,6.1,5.9,8.5
		c1.8,1.8,3.9,3.5,6.1,4.8v36c0,7.8,1.3,15.3,4,22.7c0.9,2.4,1.9,4.9,3.1,7.2c2.3,4.8,5.3,9.3,8.9,13.5c3.6,4.2,7.7,8.2,12.5,11.9
		c9.6,7.4,21.8,13.2,36.7,17.3c14.9,4.2,32.4,6.3,52.5,6.3c20.1,0,37.6-2.1,52.5-6.3c14.9-4.2,27.2-10,36.7-17.3
		c9.6-7.4,16.7-15.8,21.4-25.4c4.7-9.6,7-19.5,7-29.9v-36.5c8.5-5.5,14.1-15,14.1-25.8C355.2,207.4,354.9,205.3,354.5,203.3"/>
	<g>
		<path d="M255.6,96.6c-1.5-0.5-3-1-4.5-1.5l-96.8,96.8c0.7,1.3,1.3,2.7,1.9,4.1L255.6,96.6z"/>
		<path d="M277.9,108.8c-2.8-2.2-5.8-4.2-8.9-6L158.8,212.9l-0.1,15L277.9,108.8z"/>
		<path d="M234.8,91.6c-3.8-0.5-7.7-0.7-11.7-0.7c-0.9,0-1.7,0-2.6,0l-84,84c3.3,1.5,6.4,3.5,9.1,5.8L234.8,91.6z"/>
		<path d="M108.1,157.9l22.5-22.5c-8.5,3.4-16.1,7.5-22.5,12.3V157.9z"/>
		<path d="M290.8,122.3c-0.8-1.2-1.7-2.3-2.6-3.4L158.6,248.5l0,6L290.8,122.3z"/>
		<path d="M198,94.2c-3,0.8-6,1.8-8.8,2.9l-75.4,75.4c2.2-0.4,4.4-0.7,6.7-0.7L198,94.2z"/>
		<path d="M286.8,248.2l-0.1-5.9l-63.5,63.5c2.1,0,4.1-0.1,6.1-0.1L286.8,248.2z"/>
		<path d="M286.2,224.5l-0.3-14.2l0-0.4l-92.7,92.7c3.9,1,8.1,1.8,12.6,2.4L286.2,224.5z"/>
		<path d="M313.1,134.8c-3.6-1.3-7.3-2.5-11.3-3.7L160.2,272.7c1,3.7,2.6,7.2,4.6,10.4L313.1,134.8z"/>
		<path d="M285.1,273.8l-26.9,26.9c5.4-2,10.1-4.6,13.8-7.7C278.4,287.6,282.8,281.3,285.1,273.8z"/>
		<path d="M324.1,171.7c4.4,0,8.7,0.9,12.7,2.3l1.2-1.2v-15L324.1,171.7z"/>
		<path d="M330.7,142.9c-1.2-0.7-2.5-1.4-3.9-2.1L174.1,293.4c1.1,0.9,2.3,1.7,3.5,2.5L330.7,142.9z"/>
	</g>
</g>
</svg>
