<svg width="46" height="53" viewBox="0 0 46 53" fill="none" xmlns="http://www.w3.org/2000/svg">
<path d="M29.8108 4.57672L31.7805 6.51783L34.7097 6.73441C34.8421 6.74543 35.0023 6.84575 35.0274 7.02725L39 33.6793L28.2627 35.9831L29.8108 4.57672ZM27.2585 36L7 32.2354L9.76433 11.0861C9.89793 10.1348 9.93008 10.1029 10.948 9.7863L14.2327 8.77587C14.9358 5.81878 17.178 0 21.8711 0C22.4842 0 23.194 0.32647 23.7669 1.07799C25.9147 0.97875 27.0969 2.77443 27.7459 4.62626L28.8212 4.29706L27.2585 36ZM23.1367 2.55755C21.9922 3.04464 20.6831 4.33574 19.9847 7.00898L23.6117 5.89504C23.6249 4.32412 23.4252 3.27486 23.1367 2.55755ZM15.68 8.3311L18.547 7.45055C19.2278 3.91997 20.8401 2.15193 22.3441 1.44998C22.1489 1.31661 21.9448 1.24848 21.7422 1.24848C18.3713 1.24848 16.4775 5.63815 15.68 8.3311ZM23.9371 12.8971C23.9371 12.8971 22.9999 12.3581 21.1026 12.3581C16.1788 12.3581 13.7395 15.6199 13.7395 18.9904C13.7395 22.995 17.7682 23.1038 17.7682 25.541C17.7682 26.1302 17.3481 26.9365 16.3156 26.9365C14.7352 26.9365 12.8625 25.3418 12.8625 25.3418L11.9086 28.4676C11.9086 28.4676 13.7305 30.6668 17.2932 30.6668C20.2621 30.6668 22.464 28.4497 22.464 25.0066C22.464 20.6303 17.5533 19.9144 17.5533 18.0461C17.5533 17.7037 17.6633 16.3447 19.8464 16.3447C21.3356 16.3447 22.5505 16.9878 22.5505 16.9878L23.9371 12.8971ZM24.8427 5.51724L26.5988 4.97825C26.1539 3.63003 25.4625 2.45868 24.4244 2.32937C24.7435 3.24116 24.8566 4.32588 24.8427 5.51724Z" fill="black"/>
<path fill-rule="evenodd" clip-rule="evenodd" d="M26.9794 41.4368C25.5081 41.4368 24.6746 42.7498 24.6746 42.7498H24.643L24.7685 41.5646H22.8433C22.7489 42.3652 22.5752 43.5815 22.4015 44.4946L20.886 52.5824H23.0653L23.6643 49.3177H23.7115C23.7115 49.3177 24.1584 49.608 24.9904 49.608C27.5463 49.608 29.2184 46.9495 29.2184 44.2604C29.2184 42.7706 28.5706 41.4419 26.9738 41.4419L26.9794 41.4368ZM18.4552 41.4368C15.8351 41.4368 14.0988 43.8381 14.0988 46.512C14.0988 48.2253 15.1402 49.6019 17.0975 49.6019C19.6709 49.6019 21.4067 47.2642 21.4067 44.5242C21.4067 42.9402 20.4914 41.4327 18.4552 41.4327V41.4368ZM3.94874 44.735C3.3964 44.431 3.11219 44.1748 3.11219 43.8224C3.11219 43.3742 3.50687 43.089 4.12248 43.089C4.83951 43.089 5.47973 43.3945 5.47973 43.3945L5.98487 41.8259C5.98487 41.8259 5.51789 41.4577 4.1521 41.4577C2.24903 41.4577 0.928435 42.5628 0.928435 44.1162C0.928435 44.9963 1.54354 45.6686 2.36452 46.1483C3.02733 46.5329 3.26434 46.8053 3.26434 47.2057C3.26434 47.6218 2.93293 47.9579 2.31682 47.9579C1.39994 47.9579 0.532759 47.4776 0.532759 47.4776L0 49.0422C0 49.0422 0.800896 49.5872 2.1471 49.5872C4.1054 49.5872 5.50936 48.6108 5.50936 46.8497C5.50936 45.9054 4.79935 45.2326 3.94673 44.736L3.94874 44.735ZM29.2841 49.442H31.4624L32.9457 41.613H30.7514L29.2841 49.442ZM38.4867 41.5967H36.9702L37.0506 41.23C37.1761 40.4813 37.618 39.809 38.3445 39.809C38.7322 39.809 39.039 39.9211 39.039 39.9211L39.4658 38.192C39.4658 38.192 39.0862 38 38.2808 38C37.5075 38 36.7342 38.2241 36.1502 38.737C35.4086 39.3766 35.0606 40.3056 34.8874 41.2336L34.8221 41.6023H33.8128L33.4965 43.2677H34.5058L33.3559 49.4476H35.5316L36.684 43.2672H38.1834L38.4826 41.6018L38.4867 41.5967ZM24.8955 47.937C24.3301 47.937 23.9957 47.6162 23.9957 47.6162L24.3588 45.5514C24.6148 44.1748 25.3228 43.2621 26.0811 43.2621C26.7439 43.2621 26.9497 43.8886 26.9497 44.4794C26.9497 45.9054 26.1112 47.9375 24.896 47.9375L24.8955 47.937ZM17.3817 47.9049C16.64 47.9049 16.3242 47.2647 16.3242 46.4636C16.3242 45.199 16.9719 43.1338 18.155 43.1338C18.9282 43.1338 19.1813 43.8061 19.1813 44.458C19.1813 45.8178 18.5336 47.9009 17.3817 47.9009V47.9049ZM43.7269 41.613C43.7269 41.613 42.3651 45.0931 41.7535 46.9923H41.7224C41.6822 46.3811 41.1901 41.613 41.1901 41.613H38.9004L40.211 48.8018C40.2411 48.9617 40.226 49.0575 40.1643 49.17C39.9117 49.6692 39.4854 50.1479 38.9792 50.4993C38.57 50.8049 38.1121 50.9984 37.749 51.1258L38.3491 53C38.7909 52.9032 39.7048 52.5365 40.4781 51.798C41.4723 50.8558 42.3897 49.3992 43.3352 47.4129L46 41.6166H43.7279L43.7269 41.613ZM11.7463 41.4368C10.7832 41.4368 10.026 41.9013 9.44152 42.6056L9.41039 42.5893L10.2489 38.1548H8.06971L5.95575 49.442H8.13499L8.86307 45.5835C9.14929 44.1218 9.88993 43.2255 10.5854 43.2255C11.0734 43.2255 11.2632 43.5616 11.2632 44.0414C11.2632 44.3454 11.2311 44.7136 11.1678 45.0192L10.3444 49.439H12.5236L13.3747 44.8756C13.4701 44.3958 13.5334 43.8198 13.5334 43.4358C13.5334 42.1865 12.8856 41.4342 11.7508 41.4342L11.7463 41.4368ZM32.3306 38.2669C31.6361 38.2669 31.0833 38.8271 31.0833 39.5473C31.0833 40.2043 31.494 40.6525 32.1096 40.6525H32.1408C32.8186 40.6525 33.4011 40.188 33.4162 39.3716C33.4162 38.7309 32.9893 38.2664 32.3265 38.2664L32.3306 38.2669Z" fill="black"/>
</svg>
