<svg width="36" height="45" viewBox="0 0 36 45" fill="none" xmlns="http://www.w3.org/2000/svg">
<path d="M35.6851 1.39829C36.0737 0.705015 36.228 0.162699 35.3991 0.254185H30.1791C28.7356 0.173391 26.7137 2.09784 24.7447 4.40156C23.9353 2.20438 22.8837 0.3875 20.6688 0.397198H14.684C14.684 0.397198 12.7963 0.368729 11.2938 4.33681C10.7561 3.1623 7.59401 0.630772 6.54945 0.254731C5.50489 -0.121315 1.19357 -0.0242203 0.432482 0.182679C-0.328609 0.389578 0.146456 1.04076 0.146456 1.04076C1.48605 2.56629 5.62251 12.6358 10.72 15.0592L3.72178 28.0702C3.21045 28.7698 3.33772 29.2597 4.11506 29.5361L10.3719 29.4288C11.7963 29.2363 12.8052 28.5185 13.5182 27.4266L18.0509 20.5948L23.243 28.1059C23.9997 28.9266 25.3862 29.2771 25.996 29.2858H31.6808C32.5218 29.2387 32.7228 29.1026 32.5389 28.3562L25.3719 15.062C31.0015 12.1243 33.6448 3.94079 35.6851 1.39829ZM20.7252 3.68078L22.7476 3.66133C22.2519 4.31322 21.5595 4.61992 20.6668 4.57531L20.7252 3.68078ZM21.6607 5.16332C22.4768 5.31642 22.7068 5.68593 22.5199 7.33193C22.333 8.97792 20.4414 8.39164 20.3529 7.46244C20.2644 6.53323 20.8445 5.01023 21.6607 5.16332ZM19.4937 8.34124C19.429 9.02719 19.371 9.75969 17.9798 9.88245C16.4159 10.0204 16.3295 8.46399 16.3295 8.46399C17.7616 9.45964 18.5945 9.26303 19.4937 8.34124ZM15.1646 3.68078L15.2229 4.57531C14.3302 4.61992 13.6378 4.31322 13.1421 3.66133L15.1646 3.68078ZM15.5368 7.46244C15.4483 8.39164 13.5567 8.97792 13.3698 7.33193C13.1829 5.68593 13.4129 5.31642 14.2291 5.16332C15.0452 5.01023 15.6253 6.53323 15.5368 7.46244ZM23.4756 14.758C23.4756 14.758 30.1264 26.3388 30.4652 27.3551C28.32 28.1655 24.9264 28.003 23.6393 26.7159C22.3522 25.4288 18.3091 17.9878 18.3091 17.9878L12.3948 26.7159C11.7185 27.7518 11.0717 27.7905 9.86916 27.9596L5.19932 27.9575L9.35115 20.4348C13.9752 13.8562 18.0261 12.2374 22.8224 10.567C26.2001 9.39071 28.8639 8.45658 32.0007 5.50607C30.642 8.18756 26.8135 13.0161 23.4756 14.758Z" fill="black"/>
<path d="M20.9811 35.008C20.9811 35.5313 21.0656 36.3208 19.8159 36.7681C19.4292 36.9067 19.168 37.1561 19.168 37.1561C19.168 35.9112 19.3597 35.4606 19.8748 35.194C20.2709 34.9887 20.9811 35.008 20.9811 35.008ZM16.2767 36.4352L14.8857 41.7626L13.7287 37.4026C13.4163 36.118 12.8833 35.4538 11.7612 35.4538C10.6493 35.4538 10.1094 36.1035 9.79375 37.4026L8.63675 41.7626L7.24575 36.4352C7.02028 35.3622 5.96931 34.8984 5 35.0189L7.66378 44.9752C7.66378 44.9752 8.5425 45.0378 8.98247 44.8162C9.56016 44.525 9.83478 44.3005 10.1846 42.946C10.4962 41.7385 11.3672 38.1909 11.4488 37.9383C11.6422 37.3384 11.8993 37.3838 12.0744 37.9383C12.1545 38.1913 13.0271 41.7385 13.3387 42.946C13.6881 44.3005 13.9631 44.525 14.5408 44.8162C14.9803 45.0378 15.8595 44.9752 15.8595 44.9752L18.5232 35.0189C17.5312 34.8956 16.4993 35.3775 16.2767 36.4352ZM20.9802 36.6445C20.9802 36.6445 20.8137 36.8991 20.4334 37.1091C20.1893 37.244 19.9549 37.3356 19.7034 37.4548C19.0883 37.7464 19.168 38.015 19.168 38.8684V44.9752C19.168 44.9752 19.8403 45.0591 20.2799 44.8375C20.8458 44.5523 20.9758 44.2773 20.9811 43.0392V37.0047L20.9802 37.0051V36.6445ZM27.62 40.0209L31 35.0518C31 35.0518 29.5737 34.8117 28.8672 35.4474C28.3269 35.9333 27.8755 36.634 26.6661 38.3576C26.647 38.3869 26.4122 38.7809 26.1352 38.3576C24.9452 36.6617 24.4777 35.9365 23.9341 35.4474C23.2276 34.8117 21.8013 35.0518 21.8013 35.0518L25.1813 40.0209L21.8106 44.9748C21.8106 44.9748 23.2963 45.1603 24.0023 44.5246C24.4691 44.1046 24.7165 43.7066 26.1356 41.6847C26.4122 41.2622 26.6462 41.6537 26.6665 41.6847C27.8609 43.3866 28.2602 44.0162 28.8253 44.5246C29.5318 45.1603 30.9915 44.9748 30.9915 44.9748L27.62 40.0209Z" fill="black"/>
</svg>
