<svg width="76" height="47" viewBox="0 0 76 47" fill="none" xmlns="http://www.w3.org/2000/svg">
<path d="M49.752 10.4129L43.6129 28.3484C47.9073 26.129 50.8649 21.4323 50.8649 16C50.8649 14.0065 50.4657 12.1226 49.752 10.4129ZM29.3145 15.3097C29.3145 13.6129 29.8831 12.4387 30.373 11.5226C31.0262 10.3935 31.6371 9.43226 31.6371 8.30322C31.6371 7.03871 30.7419 5.86451 29.4778 5.86451C29.4234 5.86451 29.369 5.87097 29.3085 5.87742C31.6008 3.63871 34.6492 2.27097 38 2.27097C42.494 2.27097 46.4496 4.72903 48.754 8.45807C48.4516 8.47097 48.1673 8.47742 47.9254 8.47742C46.5827 8.47742 44.496 8.30323 44.496 8.30323C43.8004 8.25806 43.7218 9.34839 44.4113 9.43226C44.4113 9.43226 45.1069 9.51613 45.881 9.56129L41.1935 24.4258L38.375 15.4194L40.377 9.56129C41.0726 9.51613 41.7258 9.43226 41.7258 9.43226C42.4214 9.3871 42.3367 8.25806 41.6472 8.30323C41.6472 8.30323 39.5242 8.47742 38.2601 8.47742C36.9173 8.47742 34.8306 8.30322 34.8306 8.30322C34.1351 8.25806 34.0565 9.34839 34.746 9.43226C34.746 9.43226 35.4415 9.51613 36.2157 9.56129L31.5645 24.3161L30.2823 19.7419C29.7379 17.8452 29.3145 16.4839 29.3145 15.3097ZM37.7762 17.2L41.6351 29.1677C40.4798 29.529 39.2641 29.729 38 29.729C36.5 29.729 35.0665 29.4516 33.7298 28.9484C33.7661 28.8903 33.7964 28.8258 33.8206 28.7613L37.7762 17.2ZM26.7077 9.4129C26.6532 9.85161 26.623 10.3161 26.623 10.8258C26.623 12.2194 26.8649 13.7806 27.6028 15.7419L31.5343 27.8645C27.7056 25.4839 25.1351 21.0645 25.1351 16C25.1351 13.6129 25.7036 11.3677 26.7077 9.4129ZM23 16C23 24.8258 29.7319 32 38 32C46.2742 32 53 24.8194 53 16C53 7.17419 46.2742 -5.87989e-07 38 -1.31134e-06C29.7319 -2.03417e-06 23 7.17419 23 16ZM23.6895 16C23.6895 7.58064 30.1129 0.735482 38 0.735483C45.8931 0.735483 52.3105 7.58065 52.3105 16C52.3105 24.4194 45.8871 31.2645 38 31.2645C30.1069 31.2645 23.6895 24.4194 23.6895 16Z" fill="black"/>
<path d="M34.2157 39.2226H30.2996V39.6445C31.5244 39.6445 31.7213 39.9112 31.7213 41.489V44.3336C31.7213 45.9114 31.5246 46.2004 30.2996 46.2004C29.359 46.0669 28.7243 45.5558 27.8492 44.5782L26.843 43.467C28.1993 43.2223 28.9212 42.3559 28.9212 41.3779C28.9212 40.1559 27.8932 39.2227 25.9678 39.2227H22.1175V39.6446C23.3424 39.6446 23.5393 39.9112 23.5393 41.4891V44.3337C23.5393 45.9114 23.3423 46.2005 22.1175 46.2005V46.6227H26.4708V46.2005C25.246 46.2005 25.0491 45.9116 25.0491 44.3337V43.534H25.4209L27.8493 46.6226H34.2158C37.344 46.6226 38.7006 44.9338 38.7006 42.9114C38.7004 40.8889 37.344 39.2226 34.2157 39.2226ZM25.0491 42.8443V39.8892H25.9459C26.9301 39.8892 27.3681 40.5782 27.3681 41.3781C27.3681 42.1561 26.9301 42.8446 25.9459 42.8446H25.0491V42.8443ZM34.2812 45.9334H34.1279C33.3407 45.9334 33.231 45.7336 33.231 44.7113V39.8892C33.231 39.8892 34.1937 39.8892 34.2811 39.8892C36.5562 39.8892 36.9717 41.5778 36.9717 42.889C36.972 44.2445 36.5564 45.9334 34.2812 45.9334ZM9.93221 43.6669L11.4419 39.1333C11.8796 37.8223 11.6826 37.4447 10.2824 37.4447V37.0002H14.3953V37.4448C13.0171 37.4448 12.689 37.7778 12.1421 39.4001L9.64782 47H9.36358L7.13176 40.0445L4.85678 47.0001H4.57239L2.14404 39.4002C1.61903 37.7779 1.26897 37.4448 0 37.4448V37.0002H4.85678V37.4448C3.56584 37.4448 3.21564 37.7558 3.67536 39.1333L5.1411 43.667L7.35072 37.0002H7.76652L9.93221 43.6669ZM17.3702 46.9111C14.9638 46.9111 12.9948 45.1112 12.9948 42.911C12.9948 40.7333 14.964 38.9334 17.3702 38.9334C19.7768 38.9334 21.7456 40.7333 21.7456 42.911C21.7456 45.1111 19.7768 46.9111 17.3702 46.9111ZM17.3702 39.6225C15.3578 39.6225 14.6574 41.4666 14.6574 42.9112C14.6574 44.3781 15.3577 46.2002 17.3702 46.2002C19.4049 46.2002 20.105 44.378 20.105 42.9112C20.1051 41.4665 19.405 39.6225 17.3702 39.6225ZM44.1037 46.1779V46.6224H39.0937V46.1779C40.5596 46.1779 40.8221 45.8001 40.8221 43.5776V40.0223C40.8221 37.7998 40.5596 37.4445 39.0937 37.4445V37H43.6223C45.8755 37 47.123 38.1778 47.123 39.7557C47.123 41.2891 45.8757 42.489 43.6223 42.489H42.3753V43.5774C42.3753 45.8001 42.6378 46.1779 44.1037 46.1779ZM43.6224 37.7998H42.3753V41.6666H43.6223C44.8476 41.6666 45.4162 40.8001 45.4162 39.7557C45.4164 38.6891 44.8478 37.7998 43.6224 37.7998ZM62.1523 44.5336L62.0429 44.9334C61.8461 45.6667 61.6051 45.9334 60.0519 45.9334H59.7457C58.6082 45.9334 58.4113 45.6667 58.4113 44.0891V43.0671C60.1177 43.0671 60.2491 43.2224 60.2491 44.3779H60.6647V41.0667H60.2491C60.2491 42.2222 60.1177 42.3776 58.4113 42.3776V39.8892H59.6142C61.1678 39.8892 61.4081 40.1558 61.6051 40.8891L61.7147 41.3113H62.0646L61.9116 39.2224H55.4795V39.6445C56.7043 39.6445 56.9015 39.911 56.9015 41.4889V44.3335C56.9015 45.7768 56.7342 46.1404 55.7683 46.1924C54.8504 46.0498 54.2201 45.5412 53.3576 44.578L52.3512 43.4669C53.7078 43.2222 54.4298 42.3558 54.4298 41.3778C54.4298 40.1559 53.4017 39.2226 51.4765 39.2226H47.6262V39.6446C48.851 39.6446 49.048 39.9112 49.048 41.4891V44.3336C49.048 45.9114 48.8512 46.2005 47.6262 46.2005V46.6227H51.9798V46.2005C50.7548 46.2005 50.5576 45.9116 50.5576 44.3336V43.5339H50.9297L53.3579 46.6225H62.3494L62.4808 44.5339H62.1523L62.1523 44.5336ZM50.5576 42.8443V39.8892H51.4543C52.4389 39.8892 52.8767 40.5782 52.8767 41.3781C52.8767 42.1561 52.4389 42.8446 51.4543 42.8446H50.5576V42.8443ZM66.5934 46.9111C65.7182 46.9111 64.9523 46.4445 64.6243 46.1554C64.515 46.2666 64.3181 46.6 64.2744 46.9111H63.8586V43.8445H64.296C64.4713 45.3112 65.4773 46.1779 66.7681 46.1779C67.4683 46.1779 68.0371 45.7777 68.0371 45.1115C68.0371 44.5339 67.534 44.0892 66.6369 43.667L65.3899 43.0671C64.5146 42.6446 63.8585 41.911 63.8585 40.9335C63.8585 39.8669 64.8431 38.9559 66.1995 38.9559C66.9214 38.9559 67.5339 39.2227 67.9061 39.5337C68.0154 39.4447 68.1246 39.2002 68.1905 38.9335H68.6061V41.5558H68.1466C67.9933 40.5113 67.4246 39.6448 66.2653 39.6448C65.6526 39.6448 65.0837 40.0002 65.0837 40.5561C65.0837 41.1337 65.5432 41.4448 66.5933 41.9336L67.7962 42.5335C68.8465 43.0447 69.2619 43.867 69.2619 44.5338C69.2621 45.9334 68.0588 46.9111 66.5934 46.9111ZM73.3313 46.9111C72.456 46.9111 71.6901 46.4445 71.3624 46.1554C71.253 46.2666 71.0562 46.6 71.0125 46.9111H70.5967V43.8445H71.0343C71.2093 45.3112 72.2156 46.1779 73.5063 46.1779C74.2064 46.1779 74.7752 45.7777 74.7752 45.1115C74.7752 44.5339 74.2722 44.0892 73.375 43.667L72.128 43.0671C71.2529 42.6446 70.5965 41.911 70.5965 40.9335C70.5965 39.8669 71.5809 38.9559 72.9376 38.9559C73.6595 38.9559 74.272 39.2227 74.644 39.5337C74.7533 39.4447 74.8627 39.2002 74.9279 38.9335H75.344V41.5558H74.8847C74.7313 40.5113 74.1627 39.6448 73.0034 39.6448C72.3907 39.6448 71.8217 40.0002 71.8217 40.5561C71.8217 41.1337 72.2812 41.4448 73.3313 41.9336L74.5343 42.5335C75.5846 43.0447 76 43.867 76 44.5338C76 45.9334 74.7968 46.9111 73.3313 46.9111Z" fill="black"/>
</svg>
