<svg width="46" height="46" viewBox="0 0 46 46" fill="none" xmlns="http://www.w3.org/2000/svg">
<path d="M46 0H0V46H46V0Z" fill="#F7DF1E"/>
<path d="M12.0983 38.4392L15.6148 36.309C16.2949 37.5192 16.913 38.5272 18.3874 38.5272C19.8114 38.5272 20.7062 37.9729 20.7062 35.8049V21.1227H25.0286V35.8804C25.0286 40.3546 22.407 42.3959 18.576 42.3959C15.1234 42.3959 13.1198 40.6062 12.0983 38.4392Z" fill="black"/>
<path d="M27.3862 37.9728L30.9027 35.9316C31.8352 37.4436 33.0329 38.5532 35.1622 38.5532C36.9518 38.5532 38.0983 37.6584 38.0983 36.423C38.0983 34.9361 36.9258 34.4195 34.9474 33.5498L33.8639 33.0835C30.7508 31.7601 28.6718 30.0836 28.6718 26.568C28.6718 23.3292 31.1417 20.8594 34.9986 20.8594C37.7461 20.8594 39.7244 21.8171 41.1484 24.313L37.7838 26.4683C37.0399 25.1449 36.2466 24.6157 35.0112 24.6157C33.7507 24.6157 32.9448 25.4225 32.9448 26.4683C32.9448 27.7666 33.7516 28.2957 35.6042 29.09L36.6877 29.5562C40.3677 31.1312 42.4341 32.7322 42.4341 36.3493C42.4341 40.2432 39.3713 42.3734 35.2754 42.3734C31.2423 42.3958 28.6458 40.4803 27.3862 37.9728Z" fill="black"/>
</svg>
