<svg width="75" height="45" viewBox="0 0 75 45" fill="none" xmlns="http://www.w3.org/2000/svg">
<path d="M17.623 11.7366H31.7097V12.8548H18.9143V21.2707H30.9467V22.3889H18.9143V31.6286H31.8564V32.7468H17.623V11.7366ZM32.9716 11.7366H34.4683L41.1008 20.9764L47.88 11.7366L57.1009 0L41.9519 21.9475L49.7582 32.7468H48.2028L41.1008 22.9185L33.9694 32.7468H32.4434L40.3084 21.9475L32.9716 11.7366ZM50.3158 12.8548V11.7366H66.3688V12.8548H58.9733V32.7468H57.682V12.8548H50.3158ZM0 11.7366H1.6141L23.8716 45L14.6736 32.7468L1.34997 13.3256L1.29128 32.7468H0V11.7366ZM66.2387 31.2912C65.9749 31.2912 65.777 31.087 65.777 30.8232C65.777 30.5594 65.9749 30.3552 66.2387 30.3552C66.5056 30.3552 66.7004 30.5594 66.7004 30.8232C66.7004 31.087 66.5056 31.2912 66.2387 31.2912ZM67.5075 30.06H68.1985C68.2079 30.4338 68.4811 30.685 68.8831 30.685C69.3323 30.685 69.5867 30.4149 69.5867 29.9093V26.7057H70.2902V29.9124C70.2902 30.8232 69.7625 31.3477 68.8894 31.3477C68.0697 31.3477 67.5075 30.8389 67.5075 30.06ZM71.2104 30.0192H71.9076C71.9673 30.4495 72.3881 30.7227 72.9943 30.7227C73.5596 30.7227 73.9742 30.4306 73.9742 30.0286C73.9742 29.6831 73.7104 29.4758 73.1105 29.3345L72.5263 29.1932C71.7066 29.0016 71.3329 28.6059 71.3329 27.94C71.3329 27.1329 71.9924 26.5958 72.9817 26.5958C73.902 26.5958 74.5741 27.1329 74.6149 27.896H73.9302C73.8643 27.4783 73.4999 27.2177 72.9723 27.2177C72.4164 27.2177 72.0458 27.4846 72.0458 27.8929C72.0458 28.2164 72.2845 28.4017 72.875 28.5399L73.3743 28.6624C74.304 28.8791 74.6871 29.256 74.6871 29.9375C74.6871 30.8044 74.015 31.3477 72.9409 31.3477C71.9359 31.3477 71.2606 30.8295 71.2104 30.0192Z" fill="black"/>
</svg>
