<svg width="38" height="46" viewBox="0 0 38 46" fill="none" xmlns="http://www.w3.org/2000/svg">
<path d="M18.6898 20.0852C20.5758 20.0852 22.1047 18.5563 22.1047 16.6703C22.1047 14.7844 20.5758 13.2555 18.6898 13.2555C16.8039 13.2555 15.275 14.7844 15.275 16.6703C15.275 18.5563 16.8039 20.0852 18.6898 20.0852Z" fill="black"/>
<path d="M18.6898 29.2281C21.3703 31.8352 24.0141 33.3773 26.1438 33.3773C26.8414 33.3773 27.5023 33.2305 28.0531 32.9C29.9625 31.7984 30.6602 29.0445 29.9992 25.1156C29.8891 24.418 29.7422 23.7203 29.5586 22.9859C30.293 22.7656 30.9539 22.5453 31.6148 22.325C35.3234 20.893 37.3797 18.9102 37.3797 16.7438C37.3797 14.5406 35.3234 12.5578 31.6148 11.1625C30.9539 10.9055 30.293 10.6852 29.5586 10.5016C29.7422 9.76719 29.8891 9.06953 29.9992 8.37187C30.6234 4.36953 29.9258 1.57891 28.0164 0.477344C27.4656 0.146875 26.8047 0 26.107 0C24.0141 0 21.3336 1.54219 18.6531 4.14922C16.0094 1.54219 13.3656 0 11.2359 0C10.5383 0 9.87734 0.146875 9.32656 0.477344C7.41719 1.57891 6.71953 4.33281 7.38047 8.26172C7.49063 8.95937 7.6375 9.65703 7.82109 10.3914C7.08672 10.6117 6.42578 10.832 5.76484 11.0523C2.05625 12.4844 0 14.4672 0 16.6336C0 18.8367 2.05625 20.8195 5.76484 22.2148C6.42578 22.4719 7.08672 22.6922 7.82109 22.8758C7.6375 23.6102 7.49063 24.3078 7.38047 25.0055C6.75625 28.9344 7.45391 31.725 9.32656 32.7898C9.87734 33.1203 10.5383 33.2672 11.2359 33.2672C13.3656 33.3406 16.0094 31.7984 18.6898 29.2281ZM16.6336 24.2711C17.2945 24.3078 17.9922 24.3078 18.6898 24.3078C19.3875 24.3078 20.0852 24.3078 20.7461 24.2711C20.0852 25.1523 19.3875 25.9602 18.6898 26.7313C17.9922 25.9602 17.2945 25.1523 16.6336 24.2711ZM12.0805 20.4891C12.4477 21.1133 12.7781 21.7008 13.182 22.2883C12.0438 22.1414 10.9789 21.9578 9.95078 21.7375C10.2813 20.7461 10.6484 19.718 11.0891 18.6898C11.3828 19.2773 11.7133 19.9016 12.0805 20.4891ZM9.95078 11.6398C10.9789 11.4195 12.0438 11.2359 13.182 11.0891C12.8148 11.6766 12.4477 12.2641 12.0805 12.8883C11.7133 13.5125 11.3828 14.1 11.0891 14.7242C10.6117 13.6594 10.2445 12.6312 9.95078 11.6398ZM11.9703 16.6703C12.4477 15.6789 12.9617 14.6875 13.5492 13.6961C14.1 12.7414 14.7242 11.7867 15.3484 10.832C16.45 10.7586 17.5516 10.7219 18.6898 10.7219C19.8648 10.7219 20.9664 10.7586 22.0312 10.832C22.6922 11.7867 23.2797 12.7414 23.8305 13.6961C24.418 14.6875 24.932 15.6789 25.4094 16.6703C24.932 17.6617 24.418 18.6531 23.8305 19.6445C23.2797 20.5992 22.6555 21.5539 22.0312 22.5086C20.9297 22.582 19.8281 22.6188 18.6898 22.6188C17.5148 22.6188 16.4133 22.582 15.3484 22.5086C14.6875 21.5539 14.1 20.5992 13.5492 19.6445C12.9617 18.6531 12.4477 17.6617 11.9703 16.6703ZM26.3273 14.6875L25.3359 12.8516C24.9688 12.2273 24.6383 11.6398 24.2344 11.0523C25.3727 11.1992 26.4375 11.3828 27.4656 11.6031C27.1352 12.6313 26.768 13.6594 26.3273 14.6875ZM26.3273 18.6531C26.768 19.6813 27.1352 20.7094 27.4656 21.7008C26.4375 21.9211 25.3727 22.1047 24.2344 22.2516C24.6016 21.6641 24.9688 21.0766 25.3359 20.4523C25.6664 19.9016 25.9969 19.2773 26.3273 18.6531ZM27.1719 31.3945C26.8781 31.5781 26.5109 31.6516 26.107 31.6516C24.3078 31.6516 22.068 30.1828 19.8648 27.9797C20.9297 26.8414 21.9578 25.5563 22.9859 24.1242C24.7117 23.9773 26.3641 23.7203 27.9062 23.3531C28.0898 24.0141 28.2 24.675 28.3102 25.3359C28.8242 28.457 28.4203 30.6969 27.1719 31.3945ZM29.0813 12.0438C33.1938 13.2188 35.6539 15.018 35.6539 16.6703C35.6539 18.1023 33.9648 19.5344 30.9906 20.6727C30.4031 20.893 29.7422 21.1133 29.0813 21.2969C28.6039 19.7914 28.0164 18.2492 27.282 16.6703C28.0164 15.0914 28.6406 13.5492 29.0813 12.0438ZM26.1438 1.68906C26.5477 1.68906 26.8781 1.7625 27.2086 1.94609C28.4203 2.64375 28.8609 4.84687 28.3469 8.00469C28.2367 8.62891 28.0898 9.28984 27.943 9.9875C26.4008 9.65703 24.7484 9.4 23.0227 9.21641C22.0313 7.78438 20.9664 6.49922 19.9016 5.36094C22.1047 3.19453 24.3445 1.68906 26.1438 1.68906ZM20.7461 9.06953C20.0852 9.03281 19.3875 9.03281 18.6898 9.03281C17.9922 9.03281 17.2945 9.03281 16.6336 9.06953C17.2945 8.18828 17.9922 7.38047 18.6898 6.60938C19.3875 7.38047 20.0852 8.225 20.7461 9.06953ZM10.2078 1.94609C10.5016 1.7625 10.8687 1.68906 11.2727 1.68906C13.0719 1.68906 15.3117 3.15781 17.5148 5.36094C16.45 6.49922 15.4219 7.78438 14.3937 9.21641C12.668 9.36328 11.0156 9.62031 9.47344 9.9875C9.28984 9.32656 9.17969 8.66562 9.06953 8.00469C8.55547 4.88359 8.95938 2.68047 10.2078 1.94609ZM8.29844 21.2969C4.18594 20.1219 1.72578 18.3227 1.72578 16.6703C1.72578 15.2383 3.41484 13.8062 6.38906 12.668C6.97656 12.4477 7.6375 12.2273 8.29844 12.0438C8.77578 13.5492 9.36328 15.0914 10.0977 16.6703C9.36328 18.2492 8.73906 19.8281 8.29844 21.2969ZM9.06953 25.3359C9.17969 24.7117 9.32656 24.0508 9.47344 23.3531C11.0156 23.6836 12.668 23.9406 14.3937 24.1242C15.3852 25.5563 16.45 26.8414 17.5148 27.9797C15.3117 30.1461 13.0719 31.6516 11.2727 31.6516C10.8687 31.6516 10.5383 31.5781 10.2078 31.3945C8.95938 30.6969 8.55547 28.457 9.06953 25.3359ZM7.52734 40.4641C8.33516 39.4727 8.37188 38.3711 7.93125 37.2695C7.49063 36.168 6.57266 35.6539 5.43437 35.6172C4.07578 35.5805 2.68047 35.6172 1.32188 35.6172H1.06484V45.1273H2.16641V41.5289H3.89219C4.1125 41.5289 4.29609 41.6023 4.40625 41.7859L6.60938 45.2008C6.64609 45.2742 6.75625 45.3844 6.82969 45.3844H8.26172C7.38047 44.0258 6.53594 42.7406 5.65469 41.4188C6.42578 41.3086 7.08672 41.0516 7.52734 40.4641ZM2.16641 40.3906V36.7555H2.57031C3.41484 36.7555 4.29609 36.7188 5.14062 36.7922C6.13203 36.8289 6.82969 37.6 6.82969 38.5914C6.82969 39.5828 6.02187 40.3539 5.03047 40.3906C4.14922 40.4273 3.26797 40.3906 2.16641 40.3906ZM16.3766 40.868C15.7891 38.2977 13.4391 37.6367 11.6398 38.4445C10.2445 39.0688 9.62031 40.2805 9.58359 41.7859C9.54688 42.9242 9.87734 43.9523 10.7586 44.7234C11.75 45.6047 12.9617 45.7148 14.2102 45.4945C14.9078 45.3477 15.532 45.0172 16.0094 44.5031C15.8258 44.2461 15.6422 43.9891 15.4586 43.7688C14.4305 44.65 13.2922 44.9438 12.0438 44.3563C11.2359 43.9523 10.832 42.9609 10.7586 42.2266H16.45V41.7492C16.4867 41.4188 16.45 41.125 16.3766 40.868ZM10.832 41.4555C10.7219 40.3539 11.8234 39.1789 13.0352 39.1789C14.4305 39.1422 15.3117 39.9867 15.3484 41.4555H10.832ZM22.1047 38.2609C21.5539 38.1508 20.9664 38.1141 20.4156 38.1508C19.5344 38.2242 18.7633 38.6281 18.1391 39.2891C18.3227 39.5461 18.4695 39.8031 18.6898 40.0969C18.7633 40.0234 18.8367 39.95 18.9102 39.9133C19.4977 39.3625 20.1953 39.0687 21.0398 39.1422C21.7008 39.1789 22.325 39.3992 22.5086 40.0602C22.6555 40.5742 22.6188 41.125 22.6555 41.6758C22.5453 41.6758 22.5086 41.6391 22.4719 41.6023C21.5906 40.868 20.5992 40.7211 19.5344 40.9781C18.543 41.2352 17.9187 42.0062 17.8453 42.9977C17.7719 44.1359 18.2859 44.9805 19.2773 45.3844C19.9016 45.6414 20.5992 45.6414 21.2602 45.4945C21.7742 45.3844 21.9945 45.0906 22.7289 44.6867V45.1641H23.757C23.757 43.6953 23.7938 41.8961 23.757 40.207C23.757 39.1422 23.1328 38.4813 22.1047 38.2609ZM22.6187 42.8875C22.582 42.9977 22.6187 43.1078 22.6187 43.218C22.6187 43.9891 22.4352 44.2461 21.7008 44.5398C21.1867 44.7234 20.6359 44.7969 20.0852 44.6133C19.4609 44.4297 19.0203 43.8789 19.0203 43.2547C18.9836 42.6305 19.3875 42.0063 20.0117 41.8227C20.8562 41.5289 21.6273 41.7125 22.325 42.2266C22.5453 42.4102 22.6922 42.5938 22.6187 42.8875ZM28.3469 39.2523C29.3016 38.9586 30.1828 39.1422 30.8438 39.95L30.9539 40.0234C31.2109 39.8031 31.4313 39.5828 31.725 39.3258C31.6148 39.2156 31.5781 39.1422 31.5047 39.032C30.4398 37.8938 28.3469 37.7469 27.0617 38.6648C25.2625 39.9867 25.2992 42.557 26.1805 43.9156C27.025 45.2008 28.2367 45.6414 29.6688 45.4578C30.5133 45.3477 31.2109 44.9437 31.7617 44.2461C31.5047 44.0258 31.2477 43.8055 30.9906 43.5484C30.9172 43.6219 30.8805 43.6586 30.8438 43.732C29.8523 44.8336 28.2 44.7234 27.3188 43.5484C26.8047 42.8508 26.6945 42.043 26.8414 41.2352C26.9148 40.3172 27.3922 39.5828 28.3469 39.2523ZM35.9844 44.2461C35.9109 44.2828 35.8742 44.3195 35.8742 44.3195C35.5805 44.5398 35.2867 44.5766 34.9563 44.4664C34.6258 44.3195 34.5891 44.0258 34.5523 43.732V39.5461C34.5523 39.4727 34.5523 39.6195 34.5891 39.2523H35.9844V38.1508H34.5156V36.3148H33.4141V38.2977H32.4594C32.3859 38.2977 32.2758 38.3711 32.2758 38.4445C32.2391 38.7016 32.2758 38.8852 32.2758 39.2523H33.4508V43.9523C33.4508 44.5398 33.5977 45.0539 34.1117 45.3477C34.6625 45.6781 35.7273 45.6047 36.2047 45.2008C36.2781 45.1641 36.3148 45.0172 36.3148 44.9805C36.2047 44.7602 36.0945 44.5031 35.9844 44.2461Z" fill="black"/>
</svg>
