<svg width="103" height="16" viewBox="0 0 103 16" fill="none" xmlns="http://www.w3.org/2000/svg">
<path d="M97.3831 7.33006C97.9777 6.69075 98.859 6.35179 99.7218 6.35179C102.349 6.35179 103 8.14917 103 10.446V15.7583C103 15.8988 102.904 15.9973 102.77 15.9973H101.121C100.988 15.9973 100.872 15.8988 100.872 15.7583V10.6664C100.872 9.2886 100.699 8.34962 99.223 8.34962C97.3646 8.34962 97.3646 10.1457 97.3646 11.6853V15.7583C97.3646 15.8988 97.249 15.9973 97.1156 15.9973H95.4666C95.3318 15.9973 95.2175 15.8988 95.2175 15.7583V6.85058C95.2175 6.75069 95.3318 6.63082 95.4666 6.63082H97.1156C97.249 6.63082 97.3646 6.75069 97.3646 6.85058L97.3831 7.33006ZM94.0475 11.0247C94.0475 13.841 91.9387 15.9973 89.2353 15.9973C86.5517 15.9973 84.4231 13.841 84.4231 11.0247C84.4231 8.22842 86.5523 6.05144 89.2353 6.05144C91.938 6.05144 94.0475 8.22842 94.0475 11.0247ZM86.5702 11.0247C86.5702 12.5817 87.7587 13.9003 89.2346 13.9003C90.7495 13.9003 91.938 12.5817 91.938 11.0247C91.938 9.46641 90.7495 8.16848 89.2346 8.16848C87.7587 8.16848 86.5702 9.46708 86.5702 11.0247ZM79.1682 8.66794H77.6348C77.5007 8.66794 77.3858 8.60801 77.3858 8.46749V6.85058C77.3858 6.75069 77.5007 6.63082 77.6348 6.63082H77.979C79.1682 6.63082 79.1682 5.73112 79.1682 5.25231V4.23408C79.1682 4.09423 79.2838 4.01432 79.4186 4.01432H81.0656C81.2004 4.01432 81.2968 4.09423 81.2968 4.23408V6.63148H83.3099C83.444 6.63148 83.5589 6.75135 83.5589 6.85124V8.46816C83.5589 8.60867 83.444 8.66861 83.3099 8.66861H81.2968V11.664C81.2968 12.4232 81.24 13.6812 82.1022 13.8816C82.5818 13.9416 82.8699 13.8217 83.1572 13.7012C83.1572 13.7012 83.2537 13.6612 83.3099 13.6612C83.444 13.6612 83.5589 13.7604 83.5589 13.881V15.5785C83.5589 15.6391 83.4829 15.7589 83.3872 15.7782H83.4057C83.004 15.9587 82.4655 15.9973 82.0434 15.9973C79.743 15.9973 79.1669 14.3205 79.1669 12.264L79.1682 8.66794ZM70.2936 11.7832C70.3901 13.1018 71.2906 14.0201 72.6139 14.0201C73.7647 14.0201 74.2807 13.3815 74.8766 12.3826C74.9532 12.2827 75.049 12.2434 75.1831 12.3227L76.5824 13.1411C76.6789 13.2217 76.7562 13.3216 76.698 13.4414V13.4208C75.8544 15.0597 74.3586 15.9973 72.5947 15.9973C69.8543 15.9973 68.1663 13.841 68.1663 11.0847C68.1663 8.22842 69.6621 6.05211 72.557 6.05211C75.452 6.05211 76.8321 8.50812 76.8321 11.2831V11.5641C76.8321 11.7033 76.7172 11.7826 76.5831 11.7826L70.2936 11.7832ZM74.6467 9.9066C74.3778 8.88837 73.6484 8.00932 72.5564 8.00932C71.5403 8.00932 70.7165 8.92766 70.4476 9.9066H74.6467ZM66.7908 15.7576C66.7912 15.82 66.7672 15.88 66.7241 15.9247C66.681 15.9694 66.6221 15.9953 66.5603 15.9967H64.9113C64.7778 15.9967 64.6616 15.8981 64.6616 15.7576V0.519437C64.6616 0.419545 64.7778 0.299675 64.9113 0.299675H66.5603C66.6759 0.299675 66.7908 0.419545 66.7908 0.519437V15.7576ZM54.2226 0.219096C54.2226 0.11987 54.3375 0 54.4716 0H56.1398C56.2739 0 56.3875 0.11987 56.3875 0.219096V7.33006C57.0984 6.53092 58.018 6.05144 59.1292 6.05144C61.7567 6.05144 63.3852 8.36827 63.3852 10.9648C63.3852 13.6419 61.8511 15.9987 59.0513 15.9987C58.0359 15.9987 57.0568 15.4786 56.367 14.7394V15.4586C56.367 15.5978 56.2521 15.6977 56.1186 15.6977H54.4696C54.3355 15.6977 54.2206 15.5978 54.2206 15.4586L54.2226 0.219096ZM61.2777 11.0054C61.2777 9.40781 60.3567 8.04995 58.7276 8.04995C57.1948 8.04995 56.2745 9.48772 56.2745 11.0054C56.2745 12.5637 57.1559 14.0201 58.7276 14.0201C60.3766 14.0208 61.2777 12.643 61.2777 11.0054ZM43.1222 12.3233L41.5882 15.8382C41.5499 15.8981 41.4158 15.998 41.3583 15.998H39.4787C39.2878 15.998 39.192 15.8382 39.2488 15.6584L45.9399 0.459502C46.0549 0.279031 46.304 0.279031 46.3997 0.459502C48.5667 5.39282 50.9246 10.7264 53.0909 15.6597C53.1483 15.8402 53.0519 16 52.8609 16H50.9801C50.9034 16 50.7885 15.9001 50.7502 15.8402C50.2705 14.7007 49.7149 13.4834 49.2168 12.3246L43.1222 12.3233ZM46.1698 5.15308L44.0042 10.2049H48.3368L46.1698 5.15308ZM2.14581 15.7576C2.14565 15.8202 2.12124 15.8802 2.07779 15.9248C2.03435 15.9695 1.9753 15.9953 1.91326 15.9967H0.251709C0.116275 15.9967 0 15.8968 0 15.7576V0.470823C0 0.370931 0.116275 0.251061 0.251709 0.251061H1.91392C2.03019 0.251061 2.14647 0.370931 2.14647 0.470823L2.14581 15.7576ZM6.49489 15.7576C6.49474 15.8202 6.47033 15.8802 6.42688 15.9248C6.38343 15.9695 6.32439 15.9953 6.26234 15.9967H4.6008C4.46536 15.9967 4.34975 15.8968 4.34975 15.7576V0.470823C4.34975 0.370931 4.46536 0.251061 4.6008 0.251061H6.263C6.37928 0.251061 6.49555 0.370931 6.49555 0.470823L6.49489 15.7576ZM10.844 15.7576C10.8438 15.8202 10.8194 15.8802 10.776 15.9248C10.7325 15.9695 10.6735 15.9953 10.6114 15.9967H8.94923C8.81379 15.9967 8.69818 15.8968 8.69818 15.7576V0.470823C8.69818 0.370931 8.81379 0.251061 8.94923 0.251061H10.6114C10.7284 0.251061 10.844 0.370931 10.844 0.470823V15.7576ZM15.2122 15.7576C15.2121 15.82 15.1878 15.88 15.1445 15.9246C15.1011 15.9693 15.0423 15.9951 14.9803 15.9967H13.3181C13.1827 15.9967 13.0664 15.8968 13.0664 15.7576V0.470823C13.0664 0.370931 13.1827 0.251061 13.3181 0.251061H14.9803C15.096 0.251061 15.2122 0.370931 15.2122 0.470823V15.7576ZM32.3186 0.230417C32.4533 0.230417 32.5504 0.351619 32.5504 0.470823V2.19429C32.5504 2.3348 32.454 2.45467 32.3186 2.45467H17.5701C17.4737 2.45467 17.358 2.3348 17.358 2.19429V0.470823C17.358 0.350953 17.4743 0.230417 17.5701 0.230417H32.3186ZM32.3186 4.75884C32.4533 4.75884 32.5504 4.87938 32.5504 4.99925V6.72205C32.5504 6.8619 32.454 6.98244 32.3186 6.98244H17.5701C17.4737 6.98244 17.358 6.8619 17.358 6.72205V4.99925C17.358 4.87871 17.4743 4.75884 17.5701 4.75884H32.3186ZM32.3186 9.26596C32.4533 9.26596 32.5504 9.3865 32.5504 9.50637V11.2285C32.5504 11.3703 32.454 11.4909 32.3186 11.4909H17.5701C17.4737 11.4909 17.358 11.3703 17.358 11.2285V9.50637C17.358 9.38517 17.4743 9.26596 17.5701 9.26596H32.3186ZM32.3186 13.7731C32.4533 13.7731 32.5504 13.8943 32.5504 14.0135V15.737C32.5504 15.8775 32.454 15.9973 32.3186 15.9973H17.5701C17.4737 15.9973 17.358 15.8775 17.358 15.737V14.0135C17.358 13.8936 17.4743 13.7731 17.5701 13.7731H32.3186Z" fill="black"/>
</svg>
