<svg width="52" height="52" viewBox="0 0 52 52" fill="none" xmlns="http://www.w3.org/2000/svg">
<path d="M34.5632 26.0176C31.5961 24.8308 28.9632 19.6206 27.561 15.9928C24.7861 8.80785 22.0828 4.4595 14.2771 4.64499C4.30184 4.88047 3.71429 14.1508 3.71429 14.1508V45.0307C3.71429 46.3172 4.75865 47.3608 6.04446 47.3608H45.0401C46.3254 47.3608 47.6023 46.3428 47.802 45.0718C48.6168 39.8821 49.5411 27.6376 40.2103 27.1702C37.8664 27.0506 36.0108 26.5982 34.5632 26.0176ZM45.2547 45.1307H5.59151V36.4475H7.87953V42.813H10.3441V36.4475H12.3674V42.813H14.832V36.4475H16.8553V42.813H19.3193V36.4475H21.3433V42.813H23.8073V36.4475H25.8325V42.813H28.2967V36.4475H30.3201V42.813H32.7841V36.4475H34.8087V42.813H37.2714V36.4475H39.296V42.813H41.7612V36.4475H45.2518L45.2547 45.1307Z" fill="black"/>
</svg>
