<svg width="46" height="46" viewBox="0 0 46 46" fill="none" xmlns="http://www.w3.org/2000/svg">
<path d="M44.1841 6.65784H1.81583C0.812995 6.65784 0 7.47083 0 8.47367V37.5262C0 38.529 0.812995 39.342 1.81583 39.342H44.1842C45.187 39.342 46 38.529 46 37.5262V8.47367C45.9999 7.47083 45.1869 6.65784 44.1841 6.65784ZM3.63157 35.7105V10.2894H42.3683V35.7105H3.63157Z" fill="black"/>
<path d="M11.5739 14.4524C11.2349 14.1147 10.7678 13.921 10.2895 13.921C9.81137 13.921 9.3441 14.1147 9.00512 14.4524C8.6674 14.7914 8.47369 15.2587 8.47369 15.7368C8.47369 16.215 8.6674 16.6823 9.00512 17.0213C9.34275 17.359 9.81119 17.5527 10.2895 17.5527C10.7677 17.5527 11.2349 17.359 11.5739 17.0213C11.9116 16.6823 12.1054 16.215 12.1054 15.7368C12.1054 15.2587 11.9116 14.7914 11.5739 14.4524Z" fill="black"/>
<path d="M20.0476 14.4524C19.7086 14.1147 19.2414 13.921 18.7632 13.921C18.2851 13.921 17.8178 14.1147 17.4788 14.4524C17.1411 14.7902 16.9474 15.2587 16.9474 15.7368C16.9474 16.215 17.1411 16.6834 17.4788 17.0213C17.8176 17.359 18.2849 17.5527 18.7632 17.5527C19.2413 17.5527 19.7086 17.359 20.0476 17.0213C20.3853 16.6823 20.579 16.215 20.579 15.7368C20.579 15.2587 20.3853 14.7914 20.0476 14.4524Z" fill="black"/>
<path d="M28.5213 14.4524C28.1823 14.1147 27.7151 13.921 27.2369 13.921C26.7587 13.921 26.2915 14.1147 25.9525 14.4524C25.6148 14.7914 25.4211 15.2587 25.4211 15.7368C25.4211 16.215 25.6148 16.6823 25.9525 17.0213C26.2901 17.359 26.7586 17.5527 27.2369 17.5527C27.715 17.5527 28.1823 17.359 28.5213 17.0213C28.859 16.6823 29.0527 16.215 29.0527 15.7368C29.0527 15.2587 28.859 14.7914 28.5213 14.4524Z" fill="black"/>
<path d="M36.995 14.4524C36.6573 14.1147 36.1887 13.921 35.7106 13.921C35.2324 13.921 34.764 14.1147 34.4262 14.4524C34.0884 14.7902 33.8947 15.2587 33.8947 15.7368C33.8947 16.215 34.0884 16.6834 34.4262 17.0213C34.765 17.359 35.2322 17.5527 35.7106 17.5527C36.1887 17.5527 36.656 17.359 36.995 17.0213C37.3327 16.6823 37.5264 16.215 37.5264 15.7368C37.5264 15.2587 37.3327 14.7914 36.995 14.4524Z" fill="black"/>
<path d="M29.0525 26.1318V22.9999C29.0525 21.9971 28.2395 21.1841 27.2367 21.1841C26.2339 21.1841 25.4209 21.9971 25.4209 22.9999V26.1318C24.7161 26.3813 24.2103 27.0518 24.2103 27.842C24.2103 28.6323 24.7161 29.3028 25.4209 29.5523V30.2631C25.4209 31.266 26.2339 32.079 27.2367 32.079C28.2395 32.079 29.0525 31.266 29.0525 30.2631V29.5523C29.7573 29.3028 30.2631 28.6323 30.2631 27.842C30.2631 27.0518 29.7574 26.3813 29.0525 26.1318Z" fill="black"/>
<path d="M20.5789 24.9212V22.9999C20.5789 21.9971 19.7659 21.1841 18.7631 21.1841C17.7603 21.1841 16.9473 21.9971 16.9473 22.9999V24.9212C16.2425 25.1707 15.7367 25.8412 15.7367 26.6315C15.7367 27.4217 16.2425 28.0922 16.9473 28.3417V30.263C16.9473 31.2659 17.7603 32.0789 18.7631 32.0789C19.7659 32.0789 20.5789 31.2659 20.5789 30.263V28.3417C21.2837 28.0922 21.7895 27.4217 21.7895 26.6315C21.7894 25.8412 21.2837 25.1707 20.5789 24.9212Z" fill="black"/>
<path d="M12.1053 23.7108V22.9999C12.1053 21.9971 11.2923 21.1841 10.2894 21.1841C9.28659 21.1841 8.4736 21.9972 8.4736 22.9999V23.7108C7.76887 23.9602 7.26305 24.6308 7.26305 25.421C7.26305 26.2113 7.76878 26.8818 8.4736 27.1313V30.2631C8.4736 31.266 9.28659 32.079 10.2894 32.079C11.2923 32.079 12.1053 31.266 12.1053 30.2631V27.1313C12.81 26.8818 13.3158 26.2113 13.3158 25.421C13.3158 24.6308 12.81 23.9602 12.1053 23.7108Z" fill="black"/>
<path d="M37.5262 24.9212V22.9999C37.5262 21.9971 36.7132 21.1841 35.7104 21.1841C34.7076 21.1841 33.8946 21.9971 33.8946 22.9999V24.9212C33.1898 25.1707 32.684 25.8412 32.684 26.6315C32.684 27.4217 33.1898 28.0922 33.8946 28.3417V30.263C33.8946 31.2659 34.7076 32.0789 35.7104 32.0789C36.7132 32.0789 37.5262 31.2659 37.5262 30.263V28.3417C38.231 28.0922 38.7368 27.4217 38.7368 26.6315C38.7368 25.8412 38.2311 25.1707 37.5262 24.9212Z" fill="black"/>
</svg>
